<svg xmlns="http://www.w3.org/2000/svg" width="466.875" height="276.066" viewBox="0 0 466.875 276.066">
  <g id="Group_524" data-name="Group 524" transform="translate(-46.234 -55.061)">
    <g id="Background_Complete" data-name="Background Complete" transform="translate(49.88 55.061)">
      <g id="Group_425" data-name="Group 425" transform="translate(0 33.642)">
        <g id="Group_420" data-name="Group 420" transform="translate(21.486)">
          <path id="Path_129" data-name="Path 129" d="M115.636,215.664a256.407,256.407,0,0,0-.373-27.2,346.317,346.317,0,0,0-8.521-55.42c-2.377-10.256-5.3-20.338-8.352-30.41-.092-.3-.577-.218-.493.1,9.429,35.5,17.165,72.144,16.633,109.051-.149,10.329-1.345,20.475-2.325,30.738-.026.275.425.383.488.1C114.637,233.836,115.271,224.634,115.636,215.664Z" transform="translate(-86.343 -102.442)" fill="#ebebeb"/>
          <path id="Path_130" data-name="Path 130" d="M93.182,102.846S78.9,139.1,82.1,147.624s9.791,10.34,9.791,10.34-8.739,12.478-2.632,24.18,19.677,11.15,20.578,24.419C109.833,206.563,110.59,151.081,93.182,102.846Z" transform="translate(-81.63 -102.559)" fill="#ebebeb"/>
          <path id="Path_131" data-name="Path 131" d="M112.143,186.773a.28.28,0,0,0-.014-.191,332.081,332.081,0,0,0-13.855-72.935c-.022-.07-.137-.047-.118.026q4.245,15.908,7.5,31.989a15.782,15.782,0,0,0-6.819-3.8.039.039,0,0,0-.026.073,18.052,18.052,0,0,1,7.04,4.7q.626,3.152,1.213,6.309c-3.192-3.568-7.619-5.338-12.048-7.02-.062-.024-.1.072-.035.1,4.613,1.878,9.209,4.3,12.334,8.273q1.635,9.025,2.869,18.111a17.261,17.261,0,0,0-8.518-4.882c-.1-.024-.155.123-.054.152a18,18,0,0,1,8.639,5.533.227.227,0,0,0,.053.04q.429,3.2.808,6.4a21.989,21.989,0,0,0-5.97-3.6c-.058-.024-.089.067-.032.091a20.525,20.525,0,0,1,5.979,3.958c.025.023.05.021.076.031.238,2.03.475,4.061.68,6.1a29.022,29.022,0,0,0-12.115-8.65c-.094-.036-.142.107-.052.146a31.565,31.565,0,0,1,11.939,9.187.265.265,0,0,0,.3.094q.463,4.68.815,9.375c0,.043.073.047.071,0Q112.535,191.578,112.143,186.773Z" transform="translate(-85.492 -105.679)" fill="#fff"/>
          <path id="Path_132" data-name="Path 132" d="M99.473,147.232a17.86,17.86,0,0,0-8.582-2.675c-.071-.006-.077.1-.008.109a33.988,33.988,0,0,1,8.486,2.772C99.492,147.489,99.579,147.305,99.473,147.232Z" transform="translate(-84.299 -114.653)" fill="#fff"/>
          <path id="Path_133" data-name="Path 133" d="M102.787,201.485a18.066,18.066,0,0,0-6.442-2.2c-.078-.013-.085.108-.009.121a24.154,24.154,0,0,1,6.372,2.235C102.8,201.683,102.87,201.536,102.787,201.485Z" transform="translate(-85.878 -130.521)" fill="#fff"/>
        </g>
        <g id="Group_421" data-name="Group 421" transform="translate(51.546 44.885)">
          <path id="Path_134" data-name="Path 134" d="M160.748,166.715a97.1,97.1,0,0,0-16.533,14.452,59.357,59.357,0,0,0-11.595,19.663,146.973,146.973,0,0,0-8.638,47.028,114.2,114.2,0,0,0,2.546,26.448.252.252,0,0,0,.494-.093,148.353,148.353,0,0,1,.258-46.231c2.456-15,6.309-31.316,15.843-43.5,5.192-6.637,11.665-11.859,18.063-17.255C161.524,166.938,161.094,166.472,160.748,166.715Z" transform="translate(-123.964 -165.943)" fill="#ebebeb"/>
          <path id="Path_135" data-name="Path 135" d="M126.951,236.772A88.9,88.9,0,0,1,139,221.367c7.146-7.144,13.164-12.221,14.093-16.947s-7.158-8.2-7.158-8.2,9.889,1.775,12.594-2.375,4.012-28.186,4.012-28.186S144.554,178.5,136.172,196.5,126.951,236.772,126.951,236.772Z" transform="translate(-124.83 -165.656)" fill="#ebebeb"/>
          <path id="Path_136" data-name="Path 136" d="M156.285,174.3c-7.57,7.435-15.187,15.357-19.645,25.124a96.585,96.585,0,0,0-3.974,10.36c0,.006,0,.011,0,.016-.23.711-.463,1.419-.68,2.134a.257.257,0,0,0-.036.117,203.821,203.821,0,0,0-5.111,22.207c-.009.048.064.072.074.023.775-3.75,1.63-7.537,2.585-11.312a.26.26,0,0,0,.107-.021,15.747,15.747,0,0,1,4.721-1.2c.107-.01.1-.2-.01-.192a17.691,17.691,0,0,0-4.669.852c.871-3.4,1.818-6.8,2.883-10.145a50.116,50.116,0,0,1,10.67-1.4c.037,0,.043-.056,0-.058a40.4,40.4,0,0,0-10.491.89c.185-.574.379-1.145.57-1.717a54.229,54.229,0,0,1,7.1-1.2c.043,0,.04-.077,0-.077a34.5,34.5,0,0,0-6.952.845c.978-2.9,2.036-5.751,3.21-8.533a51.623,51.623,0,0,1,3.4-6.595,43.455,43.455,0,0,1,5.759-1.027c.055,0,.048-.092,0-.1a15.529,15.529,0,0,0-5.384.532c.946-1.528,1.941-3.025,3-4.475h0c4.034-.894,8.123-1.723,12.25-.948.071.014.1-.106.027-.125-3.929-1.033-7.827-.437-11.737.337q.64-.851,1.3-1.686a26.794,26.794,0,0,1,7.538-1.184.042.042,0,0,0,.006-.084,19.676,19.676,0,0,0-7.027.624c3.335-4.144,7.019-8.036,10.661-11.885C156.6,174.224,156.464,174.121,156.285,174.3Z" transform="translate(-124.796 -168.135)" fill="#fff"/>
          <path id="Path_137" data-name="Path 137" d="M166.525,197.335a16.482,16.482,0,0,0-3.578-.124.129.129,0,0,0,.013.255c1.184.035,2.368-.053,3.553.011A.071.071,0,0,0,166.525,197.335Z" transform="translate(-135.238 -174.789)" fill="#fff"/>
          <path id="Path_138" data-name="Path 138" d="M147.519,230.248a16.223,16.223,0,0,0-5.545,1.113c-.045.016-.019.089.026.079,1.831-.436,3.683-.613,5.533-.917C147.684,230.5,147.678,230.25,147.519,230.248Z" transform="translate(-129.18 -184.385)" fill="#fff"/>
          <path id="Path_139" data-name="Path 139" d="M143.343,218.9a11.764,11.764,0,0,0-2.354.212.071.071,0,0,0,.008.141,11.744,11.744,0,0,0,2.359-.111A.123.123,0,0,0,143.343,218.9Z" transform="translate(-128.885 -181.093)" fill="#fff"/>
        </g>
        <g id="Group_422" data-name="Group 422" transform="translate(0 70.754)">
          <path id="Path_140" data-name="Path 140" d="M52.515,202.661a81.7,81.7,0,0,1,16.72,7.874,49.966,49.966,0,0,1,13.929,13.233,123.712,123.712,0,0,1,17.86,36.063,96.149,96.149,0,0,1,4.053,21.991.212.212,0,0,1-.422.039A124.859,124.859,0,0,0,93.76,244.508c-5.455-11.57-12.344-23.885-22.878-31.546-5.735-4.171-12.18-6.9-18.606-9.79C51.938,203.021,52.178,202.543,52.515,202.661Z" transform="translate(-51.585 -202.25)" fill="#ebebeb"/>
          <path id="Path_141" data-name="Path 141" d="M96.611,251.417A74.832,74.832,0,0,0,83.3,241.735c-7.433-4.13-13.478-6.848-15.322-10.457s3.9-8.294,3.9-8.294-7.592,3.722-10.741.989-9.762-21.883-9.762-21.883,17.527,6.236,28.472,18.869S96.611,251.417,96.611,251.417Z" transform="translate(-51.369 -202.09)" fill="#ebebeb"/>
          <path id="Path_142" data-name="Path 142" d="M98.894,249.186c-8.766-16.454-20.463-31.34-36.492-41.165-.007,0-.014.006-.007.011a80.571,80.571,0,0,1,11.731,9.181A18.587,18.587,0,0,0,64.7,219.2a.055.055,0,0,0,.048.1,25.847,25.847,0,0,1,9.7-1.639.194.194,0,0,0,.11-.04q.853.808,1.686,1.64a29.926,29.926,0,0,0-5.036.668.036.036,0,0,0,.013.07,25.672,25.672,0,0,1,5.319-.439,110.056,110.056,0,0,1,8.267,9.387,8.4,8.4,0,0,0-3.52.256.068.068,0,0,0,.026.133,18.9,18.9,0,0,1,3.758-.052c.48.611.965,1.218,1.435,1.837a34.013,34.013,0,0,0-10.638,1.034.042.042,0,0,0,.016.082,42.826,42.826,0,0,1,10.926-.71c.447.594.871,1.2,1.309,1.8a23.079,23.079,0,0,0-6.332.725c-.08.02-.057.145.025.126a24.218,24.218,0,0,1,6.554-.511c1.886,2.6,3.692,5.254,5.428,7.943a5.915,5.915,0,0,0-2.779.167.039.039,0,0,0,.014.077,12.082,12.082,0,0,1,3.008.142q2.341,3.646,4.516,7.353C98.674,249.56,99.01,249.4,98.894,249.186Z" transform="translate(-54.565 -203.809)" fill="#fff"/>
          <path id="Path_143" data-name="Path 143" d="M92.5,246.759a13.579,13.579,0,0,0-5.092.623.039.039,0,0,0,.015.076,39.186,39.186,0,0,1,5.064-.519C92.6,246.933,92.623,246.769,92.5,246.759Z" transform="translate(-61.811 -215.03)" fill="#fff"/>
          <path id="Path_144" data-name="Path 144" d="M72.081,218.519a8.751,8.751,0,0,0-2.349.137c-.091.014-.062.148.027.139.772-.082,1.534-.054,2.306-.077A.1.1,0,0,0,72.081,218.519Z" transform="translate(-56.677 -206.844)" fill="#fff"/>
        </g>
        <g id="Group_424" data-name="Group 424" transform="translate(28.285 118.897)">
          <g id="Group_423" data-name="Group 423" transform="translate(0 3.676)">
            <path id="Path_145" data-name="Path 145" d="M130.768,326.989H91.2l5.641-41.324,1.442-10.6h25.4l1.442,10.6Z" transform="translate(-91.204 -275.07)" fill="#dbdbdb"/>
            <path id="Path_146" data-name="Path 146" d="M127.43,285.665H99.149l1.442-10.6h25.4Z" transform="translate(-93.508 -275.07)" fill="#c7c7c7"/>
          </g>
          <rect id="Rectangle_75" data-name="Rectangle 75" width="32.662" height="8.974" transform="translate(3.451)" fill="#dbdbdb"/>
        </g>
      </g>
      <g id="Group_427" data-name="Group 427" transform="translate(352.379)">
        <g id="aiZGp2">
          <g id="Group_426" data-name="Group 426">
            <path id="Path_147" data-name="Path 147" d="M564.168,82.653a48.289,48.289,0,0,0-3.273,14.955c-.074,0-.132.008-.191.008H547.812c-.055,0-.109-.006-.164-.009v-.368c.035-.339.075-.677.107-1.016a36.382,36.382,0,0,1,.876-5.22,40.306,40.306,0,0,1,2.944-8.16.3.3,0,0,1,.319-.194q6.023.007,12.047,0Z" transform="translate(-547.648 -63.06)" fill="#ebebeb"/>
            <path id="Path_148" data-name="Path 148" d="M563.767,123.748h-.212q-5.978,0-11.958,0a.28.28,0,0,1-.3-.192,38.023,38.023,0,0,1-3.618-13.861,1.137,1.137,0,0,0-.034-.158v-.366c.066,0,.132-.016.2-.016h12.818c.236,0,.224,0,.242.239.081,1.063.151,2.129.253,3.19a41.88,41.88,0,0,0,.814,5.011,45.432,45.432,0,0,0,1.732,5.957C563.726,123.613,563.742,123.67,563.767,123.748Z" transform="translate(-547.648 -70.747)" fill="#ebebeb"/>
            <path id="Path_149" data-name="Path 149" d="M631.575,135.134c-.043.074-.072.129-.106.181a36.375,36.375,0,0,1-3.449,4.472,33.982,33.982,0,0,1-5.053,4.658,36.262,36.262,0,0,1-11.843,5.935,37.612,37.612,0,0,1-5.068,1.081c-.166.023-.333.055-.5.083h-.293l-.282-.18c.12-.085.22-.16.323-.229a39.012,39.012,0,0,0,9.6-9.308,43.83,43.83,0,0,0,3.921-6.508.282.282,0,0,1,.3-.187q6.117.005,12.232,0Z" transform="translate(-564.273 -78.278)" fill="#ebebeb"/>
            <path id="Path_150" data-name="Path 150" d="M618.3,97.6H601.21V82.661c.069,0,.133-.009.2-.009q6.573,0,13.148,0a.247.247,0,0,1,.269.178,41.394,41.394,0,0,1,2.719,8.753,43.16,43.16,0,0,1,.658,4.74C618.235,96.74,618.269,97.159,618.3,97.6Z" transform="translate(-563.179 -63.06)" fill="#ebebeb"/>
            <path id="Path_151" data-name="Path 151" d="M618.161,109.317c-.016.354-.02.7-.05,1.054-.075.832-.133,1.666-.249,2.493-.162,1.145-.337,2.29-.565,3.424a40.829,40.829,0,0,1-2.217,7.291.286.286,0,0,1-.312.221q-6.73-.012-13.46-.006h-.242V109.317Z" transform="translate(-563.137 -70.793)" fill="#ebebeb"/>
            <path id="Path_152" data-name="Path 152" d="M588.965,82.789v14.96H572.271c.025-.38.036-.751.075-1.12.085-.836.153-1.677.285-2.507.205-1.267.423-2.534.7-3.791a39,39,0,0,1,2.411-7.362.262.262,0,0,1,.285-.183q6.365.006,12.729,0Z" transform="translate(-554.788 -63.1)" fill="#ebebeb"/>
            <path id="Path_153" data-name="Path 153" d="M588.982,109.508q-.006,7.034,0,14.066v.212h-.224q-6.559,0-13.114,0a.269.269,0,0,1-.293-.2,38.043,38.043,0,0,1-2.273-7.539c-.249-1.328-.442-2.67-.609-4.011-.112-.875-.135-1.763-.2-2.646a.709.709,0,0,1,.006-.094c.065,0,.129-.008.193-.008q8.152,0,16.3,0C588.944,109.292,588.982,109.342,588.982,109.508Z" transform="translate(-554.787 -70.786)" fill="#ebebeb"/>
            <path id="Path_154" data-name="Path 154" d="M643.763,97.7H629.755a48.722,48.722,0,0,0-3.265-15.051h.219q6.417,0,12.838,0a.29.29,0,0,1,.305.182,36.769,36.769,0,0,1,3.229,9.366,40.245,40.245,0,0,1,.681,5.251C643.768,97.53,643.763,97.609,643.763,97.7Z" transform="translate(-570.509 -63.06)" fill="#ebebeb"/>
            <path id="Path_155" data-name="Path 155" d="M643.935,109.159c-.016.338-.024.66-.048.978a37.331,37.331,0,0,1-.461,3.773,36.767,36.767,0,0,1-2.574,8.412c-.19.435-.4.863-.592,1.294a.2.2,0,0,1-.208.133q-6.435-.005-12.872,0c-.041,0-.082-.006-.139-.009.157-.449.311-.884.461-1.32a45.373,45.373,0,0,0,1.733-6.823,44.3,44.3,0,0,0,.6-5.081c.025-.4.05-.8.068-1.206,0-.107.034-.16.147-.15a1.121,1.121,0,0,0,.129,0Z" transform="translate(-570.669 -70.747)" fill="#ebebeb"/>
            <path id="Path_156" data-name="Path 156" d="M631.194,70.84c-.009.02-.018.038-.026.058h-.178q-6.127,0-12.252,0a.278.278,0,0,1-.295-.173,42.07,42.07,0,0,0-6.083-9.011,34.066,34.066,0,0,0-4.666-4.3c-.835-.643-1.7-1.245-2.556-1.865-.044-.031-.086-.065-.142-.107l.17-.116c-.023-.077-.047-.157-.081-.265a36.634,36.634,0,0,1,26.11,15.779Z" transform="translate(-564.277 -55.061)" fill="#ebebeb"/>
            <path id="Path_157" data-name="Path 157" d="M581.888,151.33a1.464,1.464,0,0,1-.355.058,33.468,33.468,0,0,1-3.994-.777,35.816,35.816,0,0,1-7.11-2.634,36.286,36.286,0,0,1-7.247-4.757,34.455,34.455,0,0,1-4.358-4.356,36.486,36.486,0,0,1-2.718-3.766c-.018-.03-.031-.061-.058-.116h.2q5.706,0,11.408,0a.276.276,0,0,1,.287.184A43.881,43.881,0,0,0,572.137,142a43.066,43.066,0,0,0,4.914,5.441,37.825,37.825,0,0,0,4.731,3.8C581.8,151.254,581.819,151.273,581.888,151.33Z" transform="translate(-550.083 -78.234)" fill="#ebebeb"/>
            <path id="Path_158" data-name="Path 158" d="M581.893,55.458c-.52.381-1.135.813-1.728,1.269a42.727,42.727,0,0,0-5.526,5.146,38.745,38.745,0,0,0-5.8,8.274c-.1.19-.187.386-.3.567a.252.252,0,0,1-.177.111c-.207.013-.415,0-.623,0H556.589a36.428,36.428,0,0,1,25.175-15.659c-.023.049-.048.1-.072.144C581.765,55.366,581.839,55.419,581.893,55.458Z" transform="translate(-550.241 -55.093)" fill="#ebebeb"/>
            <path id="Path_159" data-name="Path 159" d="M613.163,135.151a39.944,39.944,0,0,1-5.646,7.639,35.657,35.657,0,0,1-6.448,5.471V135.151Z" transform="translate(-563.138 -78.284)" fill="#ebebeb"/>
            <path id="Path_160" data-name="Path 160" d="M591.038,135.156v12.857a37.189,37.189,0,0,1-11.6-12.857Z" transform="translate(-556.865 -78.285)" fill="#ebebeb"/>
            <path id="Path_161" data-name="Path 161" d="M612.824,72.2H601.213V59.955a35.407,35.407,0,0,1,6.515,5.455A41.065,41.065,0,0,1,612.824,72.2Z" transform="translate(-563.18 -56.48)" fill="#ebebeb"/>
            <path id="Path_162" data-name="Path 162" d="M591.23,60.493V72.461H580.085A35.257,35.257,0,0,1,591.23,60.493Z" transform="translate(-557.053 -56.636)" fill="#ebebeb"/>
          </g>
        </g>
      </g>
      <g id="Group_430" data-name="Group 430" transform="translate(68.125 2.089)">
        <g id="Group_428" data-name="Group 428">
          <rect id="Rectangle_76" data-name="Rectangle 76" width="96.869" height="62.817" fill="none" stroke="#ebebeb" stroke-width="1"/>
          <rect id="Rectangle_77" data-name="Rectangle 77" width="96.869" height="8.347" fill="none" stroke="#ebebeb" stroke-width="1"/>
        </g>
        <g id="Group_429" data-name="Group 429" transform="translate(3.633 2.134)">
          <path id="Path_163" data-name="Path 163" d="M156.631,63.108a2.1,2.1,0,1,1-2.1-2.1A2.1,2.1,0,0,1,156.631,63.108Z" transform="translate(-152.431 -61.008)" fill="#c7c7c7"/>
          <path id="Path_164" data-name="Path 164" d="M168.708,63.108a2.1,2.1,0,1,1-2.1-2.1A2.1,2.1,0,0,1,168.708,63.108Z" transform="translate(-155.933 -61.008)" fill="#ebebeb"/>
          <path id="Path_165" data-name="Path 165" d="M180.784,63.108a2.1,2.1,0,1,1-2.1-2.1A2.1,2.1,0,0,1,180.784,63.108Z" transform="translate(-159.434 -61.008)" fill="#f57373"/>
        </g>
      </g>
    </g>
    <g id="Shadow" transform="translate(46.234 272.445)">
      <ellipse id="Ellipse_37" data-name="Ellipse 37" cx="233.437" cy="29.341" rx="233.437" ry="29.341" fill="#ebebeb"/>
    </g>
    <g id="Computer" transform="translate(105.693 88.703)">
      <g id="Group_442" data-name="Group 442" transform="translate(0)">
        <rect id="Rectangle_78" data-name="Rectangle 78" width="275.629" height="184.376" transform="translate(35.899)" fill="#dbdbdb"/>
        <rect id="Rectangle_79" data-name="Rectangle 79" width="271.623" height="179.878" transform="translate(37.902 2.249)" fill="#263238"/>
        <g id="Group_431" data-name="Group 431" transform="translate(0 184.376)">
          <rect id="Rectangle_80" data-name="Rectangle 80" width="347.428" height="12.654" transform="translate(0 13.826)" fill="#c7c7c7"/>
          <path id="Path_166" data-name="Path 166" d="M129.974,375.936l35.9-13.826H441.5l35.9,13.826Z" transform="translate(-129.974 -362.111)" fill="#dbdbdb"/>
          <path id="Path_167" data-name="Path 167" d="M185.048,371.033l23.166-8.922H431.1l23.166,8.922Z" transform="translate(-145.943 -362.111)" fill="#263238"/>
        </g>
        <g id="Group_441" data-name="Group 441" transform="translate(53.049 15.915)">
          <rect id="Rectangle_81" data-name="Rectangle 81" width="240.923" height="152.545" transform="translate(0.204)" fill="#fff"/>
          <g id="Group_433" data-name="Group 433">
            <rect id="Rectangle_82" data-name="Rectangle 82" width="241.127" height="5.87" fill="#455a64"/>
            <g id="Group_432" data-name="Group 432" transform="translate(1.754 1.479)">
              <path id="Path_168" data-name="Path 168" d="M210.068,128.4a1.456,1.456,0,1,1-1.456-1.456A1.456,1.456,0,0,1,210.068,128.4Z" transform="translate(-207.156 -126.939)" fill="#c7c7c7"/>
              <path id="Path_169" data-name="Path 169" d="M218.44,128.4a1.456,1.456,0,1,1-1.456-1.456A1.456,1.456,0,0,1,218.44,128.4Z" transform="translate(-209.584 -126.939)" fill="#fff"/>
              <path id="Path_170" data-name="Path 170" d="M226.812,128.4a1.456,1.456,0,1,1-1.456-1.456A1.456,1.456,0,0,1,226.812,128.4Z" transform="translate(-212.011 -126.939)" fill="#f57373"/>
            </g>
          </g>
          <g id="Group_439" data-name="Group 439" transform="translate(11.775 18.213)">
            <g id="Group_434" data-name="Group 434">
              <rect id="Rectangle_83" data-name="Rectangle 83" width="93.693" height="65.612" transform="translate(93.693 65.612) rotate(180)" fill="#ebebeb"/>
              <path id="Path_171" data-name="Path 171" d="M236.69,173.6a7.762,7.762,0,1,0,7.762-7.762A7.762,7.762,0,0,0,236.69,173.6Z" transform="translate(-225.741 -154.953)" fill="#dbdbdb"/>
              <path id="Path_172" data-name="Path 172" d="M279.844,208.583h52.1L305.9,173.271Z" transform="translate(-238.254 -157.107)" fill="#c7c7c7"/>
              <path id="Path_173" data-name="Path 173" d="M251.1,213.658h43.017l-21.508-22.995Z" transform="translate(-229.919 -162.15)" fill="#dbdbdb"/>
              <rect id="Rectangle_84" data-name="Rectangle 84" width="93.693" height="14.136" transform="translate(0 51.476)" fill="#dbdbdb"/>
            </g>
            <g id="Group_435" data-name="Group 435" transform="translate(107.022 74.395)">
              <rect id="Rectangle_85" data-name="Rectangle 85" width="52.352" height="47.369" transform="translate(52.352 47.369) rotate(180)" fill="#ebebeb"/>
              <path id="Path_174" data-name="Path 174" d="M381.474,268.031a5.608,5.608,0,1,0,4.4-4.4A5.614,5.614,0,0,0,381.474,268.031Z" transform="translate(-374.714 -257.672)" fill="#dbdbdb"/>
              <path id="Path_175" data-name="Path 175" d="M392.75,297.21h37.616l-18.808-25.494Z" transform="translate(-378.014 -260.047)" fill="#c7c7c7"/>
              <path id="Path_176" data-name="Path 176" d="M372,300.874h31.056l-15.528-16.6Z" transform="translate(-371.996 -263.688)" fill="#dbdbdb"/>
              <rect id="Rectangle_86" data-name="Rectangle 86" width="52.352" height="10.206" transform="translate(0 37.163)" fill="#dbdbdb"/>
            </g>
            <g id="Group_436" data-name="Group 436" transform="translate(107.022)">
              <rect id="Rectangle_87" data-name="Rectangle 87" width="83.979" height="4.236" fill="#a6a6a6"/>
              <rect id="Rectangle_88" data-name="Rectangle 88" width="102.238" height="4.236" transform="translate(0 8.771)" fill="#dbdbdb"/>
              <rect id="Rectangle_89" data-name="Rectangle 89" width="102.238" height="4.236" transform="translate(0 17.542)" fill="#dbdbdb"/>
              <rect id="Rectangle_90" data-name="Rectangle 90" width="102.238" height="4.236" transform="translate(0 26.314)" fill="#dbdbdb"/>
              <rect id="Rectangle_91" data-name="Rectangle 91" width="102.238" height="4.236" transform="translate(0 35.085)" fill="#dbdbdb"/>
              <rect id="Rectangle_92" data-name="Rectangle 92" width="67.87" height="4.236" transform="translate(0 43.856)" fill="#dbdbdb"/>
            </g>
            <g id="Group_437" data-name="Group 437" transform="translate(164.042 74.395)">
              <rect id="Rectangle_93" data-name="Rectangle 93" width="37.143" height="4.172" fill="#a6a6a6"/>
              <rect id="Rectangle_94" data-name="Rectangle 94" width="45.218" height="4.172" transform="translate(0 8.639)" fill="#dbdbdb"/>
              <rect id="Rectangle_95" data-name="Rectangle 95" width="45.218" height="4.172" transform="translate(0 17.279)" fill="#dbdbdb"/>
              <rect id="Rectangle_96" data-name="Rectangle 96" width="45.218" height="4.172" transform="translate(0 25.918)" fill="#dbdbdb"/>
              <rect id="Rectangle_97" data-name="Rectangle 97" width="45.218" height="4.172" transform="translate(0 34.557)" fill="#dbdbdb"/>
              <rect id="Rectangle_98" data-name="Rectangle 98" width="30.685" height="4.172" transform="translate(0 43.196)" fill="#dbdbdb"/>
            </g>
            <rect id="Rectangle_99" data-name="Rectangle 99" width="102.238" height="12.456" transform="translate(107.022 53.156)" fill="#2250b2"/>
            <rect id="Rectangle_100" data-name="Rectangle 100" width="93.693" height="12.456" transform="translate(0 74.395)" fill="#a6a6a6"/>
            <g id="Group_438" data-name="Group 438" transform="translate(0 91.385)">
              <rect id="Rectangle_101" data-name="Rectangle 101" width="93.693" height="4.212" fill="#dbdbdb"/>
              <rect id="Rectangle_102" data-name="Rectangle 102" width="93.693" height="4.212" transform="translate(0 8.722)" fill="#dbdbdb"/>
              <rect id="Rectangle_103" data-name="Rectangle 103" width="93.693" height="4.212" transform="translate(0 17.444)" fill="#dbdbdb"/>
              <rect id="Rectangle_104" data-name="Rectangle 104" width="64.196" height="4.212" transform="translate(0 26.166)" fill="#dbdbdb"/>
            </g>
          </g>
          <g id="Group_440" data-name="Group 440" transform="translate(234.683 5.87)">
            <rect id="Rectangle_105" data-name="Rectangle 105" width="6.443" height="146.675" fill="#dbdbdb"/>
            <path id="Path_177" data-name="Path 177" d="M539.059,210.479h0a1.664,1.664,0,0,1-1.664-1.664V136.834a1.664,1.664,0,0,1,1.664-1.664h0a1.664,1.664,0,0,1,1.664,1.664v71.982A1.664,1.664,0,0,1,539.059,210.479Z" transform="translate(-535.841 -133.717)" fill="#a6a6a6"/>
          </g>
        </g>
      </g>
    </g>
    <g id="Tablet" transform="translate(70.662 178.679)">
      <g id="Group_450" data-name="Group 450">
        <g id="Group_449" data-name="Group 449">
          <line id="Line_7" data-name="Line 7" y1="0.28" transform="translate(23.892 4.96)" fill="none"/>
          <g id="Group_448" data-name="Group 448">
            <path id="Path_178" data-name="Path 178" d="M261.29,237.545v104.1a8.472,8.472,0,0,1-8.54,8.4H89.176a8.476,8.476,0,0,1-8.539-8.4v-104.1a8.469,8.469,0,0,1,8.539-8.384H252.75A8.464,8.464,0,0,1,261.29,237.545Z" transform="translate(-80.637 -229.161)" fill="#455a64"/>
            <rect id="Rectangle_106" data-name="Rectangle 106" width="155.494" height="110.539" transform="translate(12.756 5.101)" fill="#fff"/>
            <g id="Group_447" data-name="Group 447" transform="translate(22.006 12.807)">
              <g id="Group_443" data-name="Group 443">
                <rect id="Rectangle_107" data-name="Rectangle 107" width="68.978" height="48.304" transform="translate(68.978 48.304) rotate(180)" fill="#ebebeb"/>
                <path id="Path_179" data-name="Path 179" d="M122.983,264.2a5.714,5.714,0,1,0,5.714-5.714A5.714,5.714,0,0,0,122.983,264.2Z" transform="translate(-114.922 -250.471)" fill="#dbdbdb"/>
                <path id="Path_180" data-name="Path 180" d="M154.753,289.954h38.359l-19.179-26Z" transform="translate(-124.134 -252.057)" fill="#c7c7c7"/>
                <path id="Path_181" data-name="Path 181" d="M133.589,293.69h31.669l-15.835-16.929Z" transform="translate(-117.997 -255.77)" fill="#dbdbdb"/>
                <rect id="Rectangle_108" data-name="Rectangle 108" width="68.978" height="10.407" transform="translate(0 37.897)" fill="#dbdbdb"/>
              </g>
              <g id="Group_444" data-name="Group 444" transform="translate(90.866 61.902)">
                <rect id="Rectangle_109" data-name="Rectangle 109" width="46.121" height="32.298" transform="translate(46.121 32.298) rotate(180)" fill="#ebebeb"/>
                <path id="Path_182" data-name="Path 182" d="M247.194,345.748a3.821,3.821,0,1,0,3.821-3.821A3.821,3.821,0,0,0,247.194,345.748Z" transform="translate(-241.804 -336.567)" fill="#dbdbdb"/>
                <path id="Path_183" data-name="Path 183" d="M268.437,362.967h25.648l-12.824-17.383Z" transform="translate(-247.964 -337.627)" fill="#c7c7c7"/>
                <path id="Path_184" data-name="Path 184" d="M254.286,365.465h21.175l-10.588-11.319Z" transform="translate(-243.861 -340.11)" fill="#dbdbdb"/>
                <rect id="Rectangle_110" data-name="Rectangle 110" width="46.121" height="6.959" transform="translate(0 25.339)" fill="#dbdbdb"/>
              </g>
              <rect id="Rectangle_111" data-name="Rectangle 111" width="62.062" height="11.799" transform="translate(74.932)" fill="#2250b2"/>
              <g id="Group_445" data-name="Group 445" transform="translate(74.932 16.281)">
                <rect id="Rectangle_112" data-name="Rectangle 112" width="62.062" height="1.653" fill="#dbdbdb"/>
                <rect id="Rectangle_113" data-name="Rectangle 113" width="62.062" height="1.653" transform="translate(0 3.884)" fill="#dbdbdb"/>
                <rect id="Rectangle_114" data-name="Rectangle 114" width="62.062" height="1.653" transform="translate(0 7.768)" fill="#dbdbdb"/>
                <rect id="Rectangle_115" data-name="Rectangle 115" width="62.062" height="1.653" transform="translate(0 11.652)" fill="#dbdbdb"/>
                <rect id="Rectangle_116" data-name="Rectangle 116" width="62.062" height="1.653" transform="translate(0 15.535)" fill="#dbdbdb"/>
                <rect id="Rectangle_117" data-name="Rectangle 117" width="62.062" height="1.653" transform="translate(0 19.419)" fill="#dbdbdb"/>
                <rect id="Rectangle_118" data-name="Rectangle 118" width="35.676" height="1.653" transform="translate(0 23.303)" fill="#dbdbdb"/>
              </g>
              <g id="Group_446" data-name="Group 446" transform="translate(22.24 61.902)">
                <rect id="Rectangle_119" data-name="Rectangle 119" width="62.062" height="1.653" transform="translate(0 23.303)" fill="#dbdbdb"/>
                <rect id="Rectangle_120" data-name="Rectangle 120" width="62.062" height="1.653" fill="#dbdbdb"/>
                <rect id="Rectangle_121" data-name="Rectangle 121" width="62.062" height="1.653" transform="translate(0 3.884)" fill="#dbdbdb"/>
                <rect id="Rectangle_122" data-name="Rectangle 122" width="62.062" height="1.653" transform="translate(0 7.768)" fill="#dbdbdb"/>
                <rect id="Rectangle_123" data-name="Rectangle 123" width="42.325" height="1.653" transform="translate(0 11.652)" fill="#dbdbdb"/>
                <rect id="Rectangle_124" data-name="Rectangle 124" width="62.062" height="1.653" transform="translate(0 19.419)" fill="#dbdbdb"/>
                <rect id="Rectangle_125" data-name="Rectangle 125" width="42.325" height="1.653" transform="translate(0 27.187)" fill="#dbdbdb"/>
              </g>
              <rect id="Rectangle_126" data-name="Rectangle 126" width="136.994" height="3.904" transform="translate(0 53.698)" fill="#455a64"/>
              <rect id="Rectangle_127" data-name="Rectangle 127" width="17.735" height="32.298" transform="translate(0 61.902)" fill="#2250b2"/>
            </g>
          </g>
        </g>
        <rect id="Rectangle_128" data-name="Rectangle 128" width="1.879" height="26.307" rx="0.94" transform="translate(6.509 47.287)" fill="#37474f"/>
        <path id="Path_185" data-name="Path 185" d="M329.2,312.895a3.4,3.4,0,1,1-3.4-3.4A3.4,3.4,0,0,1,329.2,312.895Z" transform="translate(-150.737 -252.454)" fill="#37474f"/>
      </g>
    </g>
    <g id="Mobile" transform="translate(408.195 156.412)">
      <g id="Group_474" data-name="Group 474">
        <g id="Group_473" data-name="Group 473">
          <path id="Path_186" data-name="Path 186" d="M625.664,197.8H562.408a6.458,6.458,0,0,0-6.4,6.518V334.54a6.463,6.463,0,0,0,6.4,6.518h63.256a6.466,6.466,0,0,0,6.406-6.518V204.319A6.462,6.462,0,0,0,625.664,197.8Zm2.406,132.713a5.978,5.978,0,0,1-5.733,6.2H565.745a5.979,5.979,0,0,1-5.74-6.2V209.255c0-6.983,2.567-7.323,5.74-7.323h11.334c.659,0,1.2.748,1.2,1.676v.4c0,2.174,1.19,2.182,2.653,2.182h26.215c1.474,0,2.8-.023,2.8-2.2v-.343c0-.928.388-1.719,1.057-1.719h11.338c3.166,0,5.733.928,5.733,7.323Z" transform="translate(-556.009 -197.801)" fill="#455a64"/>
          <path id="Path_187" data-name="Path 187" d="M611.5,205.43h-7.152a.442.442,0,0,1-.442-.442h0a.442.442,0,0,1,.442-.442H611.5a.442.442,0,0,1,.442.442h0A.442.442,0,0,1,611.5,205.43Z" transform="translate(-569.898 -199.757)" fill="#fff"/>
          <line id="Line_8" data-name="Line 8" x1="0.213" transform="translate(3.783 125.027)" fill="none"/>
          <g id="Group_472" data-name="Group 472" transform="translate(3.995 4.13)">
            <path id="Path_188" data-name="Path 188" d="M629.7,210.941V332.2a5.978,5.978,0,0,1-5.733,6.2H567.377a5.979,5.979,0,0,1-5.74-6.2V210.941c0-6.983,2.567-7.323,5.74-7.323h11.334c.659,0,1.2.748,1.2,1.676v.4c0,2.174,1.19,2.182,2.653,2.182h26.215c1.474,0,2.653-.008,2.653-2.182v-.4c0-.928.531-1.676,1.2-1.676h11.338C627.135,203.618,629.7,204.546,629.7,210.941Z" transform="translate(-561.636 -203.618)" fill="#fff"/>
            <path id="Path_189" data-name="Path 189" d="M629.791,211.049l-.089,9.126-68.132.016V211c0-7.076,2.633-7.385,5.806-7.385h11.338A1.557,1.557,0,0,1,580,205.3v.395c0,2.2,1.1,2.239,2.558,2.239h26.217c1.474,0,2.407.02,2.569-2.2v-.357c.028-1.264.619-1.757,1.289-1.757h11.335C627.135,203.618,629.872,204.575,629.791,211.049Z" transform="translate(-561.635 -203.838)" fill="#2250b2"/>
            <g id="Group_451" data-name="Group 451" transform="translate(4.439 8.018)">
              <path id="Path_190" data-name="Path 190" d="M569.9,218.915l-2.011-1.884,2.011-1.884.312.332-1.656,1.552,1.656,1.552Z" transform="translate(-567.887 -214.979)" fill="#fff"/>
              <path id="Path_191" data-name="Path 191" d="M647.688,219.014H646.27v-.5a.076.076,0,0,0-.043-.068,1.575,1.575,0,0,1-.153-.089.076.076,0,0,0-.08,0l-.436.251-.709-1.228.437-.252a.075.075,0,0,0,.035-.072c0-.029,0-.058,0-.088s0-.059,0-.088a.075.075,0,0,0-.036-.072l-.436-.251.709-1.228.435.252a.077.077,0,0,0,.081,0,1.723,1.723,0,0,1,.154-.089.075.075,0,0,0,.043-.067v-.5h1.418v.5a.077.077,0,0,0,.045.068c.052.027.1.057.153.089a.076.076,0,0,0,.081,0l.435-.252.708,1.228-.436.251a.077.077,0,0,0-.036.073q0,.043,0,.087t0,.087a.077.077,0,0,0,.036.072l.436.252L648.4,218.6l-.436-.251a.078.078,0,0,0-.081,0,1.72,1.72,0,0,1-.153.089.076.076,0,0,0-.044.067Zm-1.065-.353h.712v-.149a.43.43,0,0,1,.236-.383,1.207,1.207,0,0,0,.121-.07.43.43,0,0,1,.451-.015l.129.075.355-.616-.131-.076a.429.429,0,0,1-.211-.4l0-.069,0-.069a.429.429,0,0,1,.212-.4l.13-.075-.355-.616-.129.075a.429.429,0,0,1-.45-.013,1.245,1.245,0,0,0-.122-.07.43.43,0,0,1-.236-.383v-.149h-.712v.149a.429.429,0,0,1-.235.383,1.292,1.292,0,0,0-.122.07.427.427,0,0,1-.45.014l-.129-.075-.356.616.13.075a.43.43,0,0,1,.212.4l0,.07,0,.07a.429.429,0,0,1-.212.4l-.131.075.356.616.13-.075a.429.429,0,0,1,.449.014,1.311,1.311,0,0,0,.121.07.429.429,0,0,1,.236.383Zm.356-.65a1.048,1.048,0,1,1,1.049-1.048A1.05,1.05,0,0,1,646.979,218.01Zm0-1.744a.7.7,0,1,0,.7.7A.7.7,0,0,0,646.979,216.266Z" transform="translate(-590.203 -214.911)" fill="#fff"/>
            </g>
            <g id="Group_455" data-name="Group 455" transform="translate(4.439 2.214)">
              <g id="u5Zjqx" transform="translate(8.227)">
                <g id="Group_452" data-name="Group 452">
                  <path id="Path_192" data-name="Path 192" d="M581.928,207.246l-.11.109-.062.062a1.49,1.49,0,0,0-2.112,0l-.059-.062-.109-.109,0,0v0l.008-.006c.046-.041.091-.083.138-.122a1.7,1.7,0,0,1,.745-.347c.07-.013.141-.019.212-.028.024,0,.181,0,.185,0,.048,0,.1.006.145.011a1.663,1.663,0,0,1,.389.093,1.724,1.724,0,0,1,.264.124,1.666,1.666,0,0,1,.251.176c.039.033.077.069.116.1Z" transform="translate(-579.474 -206.736)" fill="#fff"/>
                  <path id="Path_193" data-name="Path 193" d="M580.132,207.96l-.173-.172a1.247,1.247,0,0,1,1.764,0l-.174.173a1,1,0,0,0-1.417,0Z" transform="translate(-579.615 -206.935)" fill="#fff"/>
                  <path id="Path_194" data-name="Path 194" d="M581.518,208.332l-.173.173a.512.512,0,0,0-.726,0l-.172-.172A.752.752,0,0,1,581.518,208.332Z" transform="translate(-579.756 -207.134)" fill="#fff"/>
                </g>
                <path id="Path_195" data-name="Path 195" d="M581.293,208.823a.155.155,0,1,1-.155-.156A.155.155,0,0,1,581.293,208.823Z" transform="translate(-579.911 -207.296)" fill="#fff"/>
              </g>
              <g id="Group_453" data-name="Group 453" transform="translate(0 0.39)">
                <path id="Path_196" data-name="Path 196" d="M567.887,207.736a.451.451,0,1,1,.452.452A.451.451,0,0,1,567.887,207.736Z" transform="translate(-567.887 -207.285)" fill="#fff"/>
                <path id="Path_197" data-name="Path 197" d="M569.888,207.736a.451.451,0,1,1,.452.452A.451.451,0,0,1,569.888,207.736Z" transform="translate(-568.467 -207.285)" fill="#fff"/>
                <path id="Path_198" data-name="Path 198" d="M571.889,207.736a.451.451,0,1,1,.452.452A.451.451,0,0,1,571.889,207.736Z" transform="translate(-569.047 -207.285)" fill="#fff"/>
                <path id="Path_199" data-name="Path 199" d="M573.89,207.736a.451.451,0,1,1,.452.452A.451.451,0,0,1,573.89,207.736Z" transform="translate(-569.628 -207.285)" fill="#fff"/>
                <path id="Path_200" data-name="Path 200" d="M575.891,207.736a.451.451,0,1,1,.452.452A.451.451,0,0,1,575.891,207.736Z" transform="translate(-570.208 -207.285)" fill="#fff"/>
              </g>
              <g id="Group_454" data-name="Group 454" transform="translate(54.854 0.13)">
                <path id="Path_201" data-name="Path 201" d="M648.8,208.61h-3.662v-1.691H648.8Zm-3.485-.177h3.308V207.1h-3.308Z" transform="translate(-645.141 -206.919)" fill="#fff"/>
                <rect id="Rectangle_129" data-name="Rectangle 129" width="2.367" height="1.123" transform="translate(0.3 0.284)" fill="#fff"/>
                <rect id="Rectangle_130" data-name="Rectangle 130" width="0.327" height="0.91" transform="translate(3.669 0.39)" fill="#fff"/>
              </g>
            </g>
            <path id="Path_202" data-name="Path 202" d="M574.291,382.014h-.518v2.376h-.967V383.18h-1.712v1.211h-.967v-2.376h-.518l2.341-2.419Z" transform="translate(-563.947 -254.644)" fill="#ebebeb"/>
            <g id="Group_456" data-name="Group 456" transform="translate(56.768 124.951)">
              <rect id="Rectangle_131" data-name="Rectangle 131" width="5.642" height="0.806" fill="#ebebeb"/>
              <rect id="Rectangle_132" data-name="Rectangle 132" width="5.642" height="0.806" transform="translate(0 1.994)" fill="#ebebeb"/>
              <rect id="Rectangle_133" data-name="Rectangle 133" width="5.642" height="0.806" transform="translate(0 3.989)" fill="#ebebeb"/>
            </g>
            <g id="Group_461" data-name="Group 461" transform="translate(4.439 21.247)">
              <g id="Group_459" data-name="Group 459">
                <g id="Group_458" data-name="Group 458">
                  <path id="Path_203" data-name="Path 203" d="M573.682,240.57a3.733,3.733,0,0,1-1.095.458,3.8,3.8,0,1,1,1.095-.458Z" transform="translate(-567.887 -233.542)" fill="#dbdbdb"/>
                  <g id="Group_457" data-name="Group 457" transform="translate(1.801 2.209)">
                    <path id="Path_204" data-name="Path 204" d="M573.919,237.807a1.156,1.156,0,1,1-1.155-1.155A1.156,1.156,0,0,1,573.919,237.807Z" transform="translate(-570.767 -236.652)" fill="#fff"/>
                    <path id="Path_205" data-name="Path 205" d="M574.417,241.953v.476a3.733,3.733,0,0,1-1.095.458,3.774,3.774,0,0,1-2.9-.459v-.475a2,2,0,1,1,3.993,0Z" transform="translate(-570.424 -237.61)" fill="#fff"/>
                  </g>
                </g>
              </g>
              <g id="Group_460" data-name="Group 460" transform="translate(12.357 0.218)">
                <rect id="Rectangle_134" data-name="Rectangle 134" width="24.14" height="1.991" fill="#ebebeb"/>
                <rect id="Rectangle_135" data-name="Rectangle 135" width="21.071" height="1.319" transform="translate(0 3.319)" fill="#ebebeb"/>
                <rect id="Rectangle_136" data-name="Rectangle 136" width="34.841" height="1.319" transform="translate(0 5.857)" fill="#ebebeb"/>
              </g>
            </g>
            <g id="Group_462" data-name="Group 462" transform="translate(0.002 31.988)">
              <rect id="Rectangle_137" data-name="Rectangle 137" width="68.065" height="47.657" transform="translate(68.065 47.657) rotate(180)" fill="#ebebeb"/>
              <path id="Path_206" data-name="Path 206" d="M572.838,265.447a5.638,5.638,0,1,0,5.638-5.638A5.638,5.638,0,0,0,572.838,265.447Z" transform="translate(-564.885 -251.899)" fill="#dbdbdb"/>
              <path id="Path_207" data-name="Path 207" d="M604.2,290.853H642.04L623.118,265.2Z" transform="translate(-573.977 -253.464)" fill="#c7c7c7"/>
              <path id="Path_208" data-name="Path 208" d="M583.3,294.539h31.245l-15.623-16.7Z" transform="translate(-567.919 -257.127)" fill="#dbdbdb"/>
              <rect id="Rectangle_138" data-name="Rectangle 138" width="68.065" height="10.268" transform="translate(0 37.389)" fill="#dbdbdb"/>
            </g>
            <g id="Group_467" data-name="Group 467" transform="translate(4.439 97.747)">
              <g id="Group_465" data-name="Group 465">
                <g id="Group_464" data-name="Group 464">
                  <path id="Path_209" data-name="Path 209" d="M573.682,348.31a3.734,3.734,0,0,1-1.095.458,3.8,3.8,0,1,1,1.095-.458Z" transform="translate(-567.887 -341.282)" fill="#dbdbdb"/>
                  <g id="Group_463" data-name="Group 463" transform="translate(1.801 2.208)">
                    <circle id="Ellipse_38" data-name="Ellipse 38" cx="1.156" cy="1.156" r="1.156" transform="translate(0.841)" fill="#fff"/>
                    <path id="Path_210" data-name="Path 210" d="M574.417,349.693v.477a3.734,3.734,0,0,1-1.095.458,3.774,3.774,0,0,1-2.9-.46v-.475a2,2,0,1,1,3.993,0Z" transform="translate(-570.424 -345.35)" fill="#fff"/>
                  </g>
                </g>
              </g>
              <g id="Group_466" data-name="Group 466" transform="translate(12.357 0.218)">
                <rect id="Rectangle_139" data-name="Rectangle 139" width="31.046" height="1.991" fill="#ebebeb"/>
                <rect id="Rectangle_140" data-name="Rectangle 140" width="39.632" height="1.319" transform="translate(0 3.319)" fill="#ebebeb"/>
                <rect id="Rectangle_141" data-name="Rectangle 141" width="13.501" height="1.319" transform="translate(0 5.858)" fill="#ebebeb"/>
              </g>
            </g>
            <g id="Group_468" data-name="Group 468" transform="translate(0.002 108.489)">
              <rect id="Rectangle_142" data-name="Rectangle 142" width="68.054" height="11.641" fill="#ebebeb"/>
              <path id="Path_211" data-name="Path 211" d="M583.917,371.282H573.3a5.639,5.639,0,0,1,10.612,0Z" transform="translate(-565.02 -359.641)" fill="#dbdbdb"/>
            </g>
            <g id="Group_470" data-name="Group 470" transform="translate(4.509 82.443)">
              <path id="Path_212" data-name="Path 212" d="M568.051,322.516a2.253,2.253,0,1,1,2.723,1.654A2.252,2.252,0,0,1,568.051,322.516Z" transform="translate(-567.986 -319.728)" fill="#ebebeb"/>
              <g id="xsrjP0" transform="translate(0.815 0.739)">
                <g id="Group_469" data-name="Group 469">
                  <path id="Path_213" data-name="Path 213" d="M570.638,323.179c-.06-.038-.111-.092-.191-.084-.031,0-.024-.023-.024-.039q0-.451,0-.9c0-.022,0-.04.026-.052.229-.116.328-.343.469-.538a.893.893,0,0,0,.166-.68c-.009-.068.022-.1.083-.112a.151.151,0,0,1,.171.054,1.2,1.2,0,0,1,.131.393,1.4,1.4,0,0,1-.042.337c-.01.082-.029.164-.045.247.02.015.043.007.065.008h.76c.107,0,.159.031.174.1a.2.2,0,0,1-.11.219c-.019.01-.053,0-.055.031s.033.027.05.039c.092.063.075.193-.032.268-.026.018-.075.01-.076.048s.045.029.067.05a.172.172,0,0,1-.073.265.417.417,0,0,0-.045.017c-.013.009-.025.018,0,.035a.149.149,0,0,1,0,.267l-.033.024a.214.214,0,0,1-.134.029h-1.192A.143.143,0,0,1,570.638,323.179Z" transform="translate(-569.507 -320.768)" fill="#fff" fill-rule="evenodd"/>
                  <path id="Path_214" data-name="Path 214" d="M569.134,323.161c0-.191,0-.381,0-.572,0-.038,0-.057.051-.057.232,0,.465,0,.7,0,.045,0,.053.015.053.056q0,.575,0,1.15c0,.049-.013.063-.062.062-.226,0-.451,0-.677,0-.056,0-.064-.018-.063-.067C569.136,323.542,569.134,323.351,569.134,323.161Z" transform="translate(-569.133 -321.28)" fill="#fff" fill-rule="evenodd"/>
                </g>
              </g>
            </g>
            <g id="Group_471" data-name="Group 471" transform="translate(9.24 82.443)">
              <path id="Path_215" data-name="Path 215" d="M574.714,322.516a2.253,2.253,0,1,1,2.723,1.654A2.254,2.254,0,0,1,574.714,322.516Z" transform="translate(-574.649 -319.728)" fill="#2250b2"/>
              <path id="Path_216" data-name="Path 216" d="M578.447,322.746a1.151,1.151,0,0,1-2.3,0,.91.91,0,0,1,.344-1.326c.641-.194.806.923.806.923s.165-1.117.807-.923A.91.91,0,0,1,578.447,322.746Z" transform="translate(-575.044 -320.212)" fill="#fff"/>
            </g>
            <rect id="Rectangle_143" data-name="Rectangle 143" width="31.973" height="1.301" transform="translate(17.169 84.401)" fill="#ebebeb"/>
            <path id="Path_217" data-name="Path 217" d="M561.637,333.316l8.507-.129,8.507-.074,17.013-.062,17.013.061,8.507.074,8.507.13-8.507.13-8.507.074-17.013.061-17.013-.062-8.507-.074Z" transform="translate(-561.636 -241.148)" fill="#ebebeb"/>
          </g>
        </g>
      </g>
    </g>
    <g id="Character" transform="translate(167.569 193.799)">
      <g id="Group_523" data-name="Group 523">
        <g id="Group_522" data-name="Group 522">
          <g id="Group_487" data-name="Group 487" transform="translate(0 74.366)">
            <g id="Group_480" data-name="Group 480" transform="translate(0 1.225)">
              <g id="Group_478" data-name="Group 478" transform="translate(77.235 7.889)">
                <path id="Path_218" data-name="Path 218" d="M391.059,404.963c-.53-1.5-28.02-36.292-29.861-36.934-.211-.086-11.993,8.674-11.993,8.674-.48.669-23.311-3.662-23.311-3.662l.344,27.427,41.39-1.742s5.662,3.172,10.833,5.744c.009,0,.013.006.018,0a61.725,61.725,0,0,0,6.8,3.125C387.36,408.084,391.6,406.455,391.059,404.963Z" transform="translate(-325.894 -368.026)" fill="#eb9481"/>
                <path id="Path_219" data-name="Path 219" d="M392.471,407.6a60.134,60.134,0,0,1-6.8-3.125c-.006.006-.013,0-.02,0-5.168-2.572-10.831-5.747-10.831-5.747l-9.212.39L350.7,376.133c3.178.494,5.547.782,5.7.567,0,0,11.777-8.759,11.99-8.671,1.841.642,29.328,35.432,29.861,36.932S394.553,408.087,392.471,407.6Z" transform="translate(-333.086 -368.026)" fill="#fff"/>
                <g id="Group_477" data-name="Group 477" transform="translate(23.311)">
                  <path id="Path_220" data-name="Path 220" d="M400.823,405c-.558-1.537-28.167-36.305-30.057-36.966-.716-.254-6.491,3.481-12.041,8.665L376.552,399.1s16.185,8.148,18.338,8.65S401.381,406.54,400.823,405Z" transform="translate(-358.725 -368.025)" fill="#2250b2"/>
                  <g id="Group_476" data-name="Group 476" transform="translate(7.626 2.307)">
                    <g id="Group_475" data-name="Group 475">
                      <path id="Path_221" data-name="Path 221" d="M404.158,406.552c-4.771-5.715-23.476-29.214-27.758-35.226-.035-.048,0-.074.036-.028,4.853,5.56,23.367,29.21,27.817,35.178C404.347,406.6,404.258,406.672,404.158,406.552Z" transform="translate(-371.472 -371.274)" fill="#263238"/>
                      <path id="Path_222" data-name="Path 222" d="M404.822,418.786a5.979,5.979,0,0,1-1.346-4.617,5.793,5.793,0,0,1,2.078-3.774c.036-.026.087.038.055.071a6.909,6.909,0,0,0-.714,8.262A.047.047,0,0,1,404.822,418.786Z" transform="translate(-379.31 -382.616)" fill="#263238"/>
                      <path id="Path_223" data-name="Path 223" d="M385.609,410.154c-1.884-2.308-3.209-5.665-2.452-8.631.03-.114.192-.071.212.026a41.238,41.238,0,0,0,2.56,8.416A.187.187,0,0,1,385.609,410.154Z" transform="translate(-373.373 -380.025)" fill="#263238"/>
                      <path id="Path_224" data-name="Path 224" d="M388.612,411.9c-1.885-2.307-3.209-5.665-2.452-8.631.029-.114.192-.071.212.026a41.148,41.148,0,0,0,2.56,8.416A.187.187,0,0,1,388.612,411.9Z" transform="translate(-374.243 -380.533)" fill="#263238"/>
                      <path id="Path_225" data-name="Path 225" d="M391.615,413.656c-1.885-2.307-3.209-5.665-2.452-8.63.029-.115.192-.072.212.026a41.148,41.148,0,0,0,2.56,8.416A.187.187,0,0,1,391.615,413.656Z" transform="translate(-375.114 -381.04)" fill="#263238"/>
                      <path id="Path_226" data-name="Path 226" d="M394.617,415.407c-1.884-2.307-3.209-5.665-2.452-8.63.029-.115.192-.072.212.026a41.154,41.154,0,0,0,2.56,8.415A.188.188,0,0,1,394.617,415.407Z" transform="translate(-375.985 -381.548)" fill="#263238"/>
                      <path id="Path_227" data-name="Path 227" d="M370.037,377.916c-2.071-2.623,2-5.846,4.076-3.218S372.111,380.544,370.037,377.916Z" transform="translate(-369.466 -371.983)" fill="#263238"/>
                    </g>
                    <path id="Path_228" data-name="Path 228" d="M383.25,416.8c.625-2.549.124-5.278-.046-7.852a.364.364,0,0,0-.521-.271.079.079,0,0,0-.125-.02,15.633,15.633,0,0,0-4.282,6.857c-.439,1.536-.214,3.783,1.7,4.186C381.792,420.08,382.886,418.285,383.25,416.8ZM381.4,418.44c-2.722,1.784-2.591-2.055-2.222-3.173a16.859,16.859,0,0,1,.9-2.1,46.787,46.787,0,0,1,2.413-4.059c.006,1.269.121,2.526.174,3.794C382.727,414.411,382.9,417.457,381.4,418.44Z" transform="translate(-371.965 -382.106)" fill="#263238"/>
                    <path id="Path_229" data-name="Path 229" d="M372.759,398.394c-1.378,1.392-.327,3.391.884,4.431a15.631,15.631,0,0,0,7.35,3.365c.062.01.092-.036.093-.085a.363.363,0,0,0,.286-.512c-1.275-2.242-2.36-4.8-4.285-6.579C375.963,397.973,374.061,397.077,372.759,398.394Zm5.986,4.2c.654,1.087,1.25,2.2,1.944,3.262a46.832,46.832,0,0,1-4.25-2.06,16.75,16.75,0,0,1-1.906-1.26c-.923-.731-3.147-3.863.108-3.873C376.435,398.654,377.965,401.295,378.744,402.59Z" transform="translate(-370.231 -378.946)" fill="#263238"/>
                  </g>
                </g>
              </g>
              <g id="Group_479" data-name="Group 479">
                <path id="Path_230" data-name="Path 230" d="M293.007,363.3l-18.668-1.473s-26.96-7.815-42.542-3.723c-17.863,4.691-20.383,25.561-2.221,33.926,17.966,8.274,97.068,5.224,97.068,5.224l-16.957-25.113s-26.042-6.118-48.842-4.875l32.28,3.717Z" transform="translate(-217.119 -356.914)" fill="#37474f"/>
                <path id="Path_231" data-name="Path 231" d="M305.963,372.3c-2.778-.457-5.587-.684-8.389-.944-2.825-.263-5.657-.466-8.489-.645a168.233,168.233,0,0,0-16.979-.257c-.53.02-1.059.052-1.589.082-.112-.035-.234-.053-.35-.079-.273-.06-.545-.121-.819-.168-.513-.087-1.029-.151-1.544-.219-1.074-.141-2.151-.232-3.219-.409-.065-.011-.089.087-.023.1,1.076.215,2.135.5,3.212.715.311.061.621.121.932.177-2.073.153-4.141.356-6.208.586-.065.007-.065.108,0,.1,2.814-.224,5.653-.3,8.476-.315,2.8-.011,5.606-.008,8.408.094,5.667.207,11.334.6,16.985,1.069,3.17.265,6.351.591,9.531.658C306.207,372.857,306.277,372.354,305.963,372.3Z" transform="translate(-230.263 -360.61)" fill="#263238"/>
                <path id="Path_232" data-name="Path 232" d="M353.661,402.656c-1.047-1.6-1.946-3.31-2.907-4.96s-1.93-3.312-2.9-4.967c-1.931-3.3-8.844-14.391-9.52-15.163-.043-.049-.126.01-.1.067.332.862,4.656,8.211,5.651,9.849,1.988,3.276,4.072,6.484,6.128,9.717.587.923,1.194,1.833,1.789,2.751s1.226,1.818,1.774,2.761C353.607,402.769,353.7,402.712,353.661,402.656Z" transform="translate(-252.235 -362.897)" fill="#263238"/>
              </g>
            </g>
            <g id="Group_486" data-name="Group 486" transform="translate(8.279)">
              <g id="Group_484" data-name="Group 484" transform="translate(0 12.799)">
                <path id="Path_233" data-name="Path 233" d="M229.16,411.527c.459-1.524,26.27-37.578,28.079-38.307.207-.1,12.39,8.1,12.39,8.1.511.645,23.113-4.762,23.113-4.762l.954,27.413-41.427.219s-5.5,3.436-10.549,6.25c-.009,0-.013.007-.018,0a61.888,61.888,0,0,1-6.642,3.443C233,414.471,228.69,413.044,229.16,411.527Z" transform="translate(-228.879 -373.216)" fill="#eb9481"/>
                <path id="Path_234" data-name="Path 234" d="M235.058,413.885a60.276,60.276,0,0,0,6.641-3.444c.007.006.013,0,.02,0,5.041-2.813,10.547-6.253,10.547-6.253l9.22-.047,13.808-23.661c-3.151.645-5.5,1.044-5.668.837,0,0-12.179-8.192-12.387-8.094-1.809.728-27.618,36.78-28.079,38.3S233,414.474,235.058,413.885Z" transform="translate(-228.88 -373.217)" fill="#fff"/>
                <g id="Group_483" data-name="Group 483">
                  <path id="Path_235" data-name="Path 235" d="M228.816,411.579c.485-1.562,26.417-37.6,28.275-38.348.7-.288,6.649,3.17,12.437,8.085l-16.746,23.213s-15.782,8.9-17.907,9.508S228.332,413.141,228.816,411.579Z" transform="translate(-228.779 -373.215)" fill="#2250b2"/>
                  <g id="Group_482" data-name="Group 482" transform="translate(1.716 2.333)">
                    <g id="Group_481" data-name="Group 481">
                      <path id="Path_236" data-name="Path 236" d="M231.331,413.052c4.5-5.934,22.066-30.292,26.059-36.5.032-.05,0-.075-.038-.027-4.584,5.784-21.957,30.284-26.12,36.456C231.143,413.111,231.236,413.178,231.331,413.052Z" transform="translate(-231.196 -376.5)" fill="#263238"/>
                      <path id="Path_237" data-name="Path 237" d="M241.051,425.346a5.979,5.979,0,0,0,1.125-4.676A5.8,5.8,0,0,0,239.923,417c-.037-.024-.086.041-.053.073a6.91,6.91,0,0,1,1.1,8.219A.047.047,0,0,0,241.051,425.346Z" transform="translate(-233.708 -388.242)" fill="#263238"/>
                      <path id="Path_238" data-name="Path 238" d="M259.671,415.778c1.774-2.394,2.937-5.811,2.041-8.736-.035-.114-.2-.062-.209.036a41.186,41.186,0,0,1-2.159,8.528A.188.188,0,0,0,259.671,415.778Z" transform="translate(-239.354 -385.337)" fill="#263238"/>
                      <path id="Path_239" data-name="Path 239" d="M256.754,417.669c1.774-2.394,2.937-5.811,2.041-8.736-.035-.114-.2-.062-.21.036a41.146,41.146,0,0,1-2.159,8.528A.187.187,0,0,0,256.754,417.669Z" transform="translate(-238.508 -385.885)" fill="#263238"/>
                      <path id="Path_240" data-name="Path 240" d="M253.838,419.561c1.773-2.394,2.937-5.812,2.041-8.737-.034-.113-.2-.062-.209.036a41.206,41.206,0,0,1-2.159,8.528A.188.188,0,0,0,253.838,419.561Z" transform="translate(-237.663 -386.434)" fill="#263238"/>
                      <path id="Path_241" data-name="Path 241" d="M250.921,421.452c1.774-2.394,2.937-5.811,2.041-8.736-.035-.114-.2-.062-.21.035a41.139,41.139,0,0,1-2.159,8.528A.187.187,0,0,0,250.921,421.452Z" transform="translate(-236.817 -386.982)" fill="#263238"/>
                      <path id="Path_242" data-name="Path 242" d="M272.679,382.886c1.944-2.718-2.277-5.744-4.225-3.022S270.731,385.609,272.679,382.886Z" transform="translate(-241.854 -377.166)" fill="#263238"/>
                    </g>
                    <path id="Path_243" data-name="Path 243" d="M264.67,425.128c1.9-.493,2.014-2.749,1.5-4.262a15.617,15.617,0,0,0-4.6-6.646.078.078,0,0,0-.124.026.363.363,0,0,0-.508.295c-.048,2.578-.419,5.328.326,7.845C261.7,423.853,262.877,425.594,264.67,425.128Zm-3-6.664c-.007-1.269.048-2.53-.006-3.8a46.8,46.8,0,0,1,2.6,3.941,16.718,16.718,0,0,1,1,2.056c.421,1.1.734,4.928-2.07,3.275C261.641,423.027,261.675,419.975,261.665,418.463Z" transform="translate(-239.781 -387.431)" fill="#263238"/>
                    <path id="Path_244" data-name="Path 244" d="M265.074,404.283c-1.838,1.872-2.8,4.475-3.969,6.775a.363.363,0,0,0,.31.5.079.079,0,0,0,.1.081,15.63,15.63,0,0,0,7.183-3.709c1.161-1.1,2.115-3.143.673-4.469C268,402.205,266.147,403.19,265.074,404.283Zm2.426-.469c3.252-.143,1.179,3.089.291,3.863a16.739,16.739,0,0,1-1.844,1.349,46.66,46.66,0,0,1-4.147,2.259c.643-1.094,1.186-2.234,1.788-3.351C264.3,406.6,265.708,403.892,267.5,403.814Z" transform="translate(-239.858 -384.147)" fill="#263238"/>
                  </g>
                </g>
              </g>
              <g id="Group_485" data-name="Group 485" transform="translate(33.746)">
                <path id="Path_245" data-name="Path 245" d="M307.45,362.888l18.585-.493s19.189-9.86,34.948-6.512c18.064,3.839,20.958,26.325,7.752,34.653-16.731,10.551-92.428,10.6-92.428,10.6l15.617-28.152s25.015-5.962,47.848-5.8L307.7,372.429Z" transform="translate(-276.306 -355.189)" fill="#37474f"/>
                <path id="Path_246" data-name="Path 246" d="M296.831,378.886a.6.6,0,0,0,.031-.143l.026-.116c.02-.09.042-.18.065-.27a5.71,5.71,0,0,1,.175-.547c.066-.181.138-.358.216-.534a4.059,4.059,0,0,1,.293-.5c.011-.017.029-.021.043-.032a.176.176,0,0,1,.028-.021.173.173,0,0,1,.04-.018.213.213,0,0,1,.04-.018c2.753-.589,21.479-3.777,24.266-4.17,2.81-.4,5.628-.733,8.449-1.046a168.338,168.338,0,0,1,16.947-1.061c.531,0,1.061,0,1.591.006.111-.04.231-.064.346-.094.27-.073.538-.147.811-.207.508-.111,1.02-.2,1.532-.292,1.066-.192,2.137-.334,3.2-.562.065-.014.092.083.028.1-1.065.266-2.109.6-3.175.866-.307.076-.614.151-.922.222,2.078.054,4.153.159,6.229.291.065,0,.07.105,0,.1-2.822-.091-5.661-.036-8.481.087-2.8.121-5.6.258-8.393.492-5.651.475-11.294,1.133-16.915,1.872-3.155.415-22.246,3.721-25.42,3.938a.237.237,0,0,1-.04,0,1.746,1.746,0,0,1-.082.219c-.082.175-.165.348-.255.519s-.172.328-.271.486q-.073.118-.149.234l-.077.116a.62.62,0,0,0-.08.122A.051.051,0,1,1,296.831,378.886Z" transform="translate(-282.255 -359.27)" fill="#263238"/>
                <path id="Path_247" data-name="Path 247" d="M284.548,406.772c.969-1.647,1.786-3.4,2.669-5.092s1.771-3.4,2.659-5.1c1.772-3.388,8.152-14.794,8.791-15.6.04-.05.127,0,.108.062-.291.878-4.262,8.423-5.178,10.106-1.831,3.366-3.761,6.669-5.662,10-.543.95-1.106,1.888-1.656,2.834s-1.138,1.874-1.642,2.842C284.606,406.882,284.514,406.829,284.548,406.772Z" transform="translate(-278.694 -362.663)" fill="#263238"/>
              </g>
            </g>
          </g>
          <g id="Group_521" data-name="Group 521" transform="translate(28.624)">
            <g id="Group_496" data-name="Group 496" transform="translate(46.052 4.701)">
              <g id="Group_493" data-name="Group 493" transform="translate(0.68)">
                <g id="Group_488" data-name="Group 488" transform="translate(31.087)">
                  <path id="Path_248" data-name="Path 248" d="M370.994,259.105l-3.914,21.183c-.183.626.155,1.1.757,1.064l10.756-.691a1.745,1.745,0,0,0,1.421-1.2l3.914-21.183c.184-.627-.156-1.1-.756-1.064l-10.756.69A1.743,1.743,0,0,0,370.994,259.105Z" transform="translate(-367.031 -257.114)" fill="#37474f"/>
                  <path id="Path_249" data-name="Path 249" d="M372.791,258.973l-3.914,21.183c-.183.626.155,1.1.757,1.065l10.756-.691a1.745,1.745,0,0,0,1.421-1.2l3.914-21.183c.184-.627-.155-1.1-.756-1.065l-10.756.691A1.744,1.744,0,0,0,372.791,258.973Z" transform="translate(-367.552 -257.076)" fill="#455a64"/>
                  <path id="Path_250" data-name="Path 250" d="M377.9,260.465a.916.916,0,1,1-.954-.876A.916.916,0,0,1,377.9,260.465Z" transform="translate(-369.652 -257.804)" fill="#263238"/>
                </g>
                <path id="Path_251" data-name="Path 251" d="M325.653,303.281c6.808,12.633,21.415,28.72,27.075,28.481,2.694-.114,7.536.263,10.9-3.025,7.335-7.176,13.063-20.44,13.968-27.9.322-2.654-12.779-7.641-14.549-5.4-4.144,5.256-8.74,15.376-9.526,15.36-2.908-.06-14.753-8.862-23.024-15.065C320.453,288.2,322.94,298.247,325.653,303.281Z" transform="translate(-323.249 -267.5)" fill="#eb9481"/>
                <g id="Group_492" data-name="Group 492" transform="translate(29.37 4.38)">
                  <path id="Path_252" data-name="Path 252" d="M395.843,278.6c-1.649-5.261-2.879-6.359-1.913-11.538.635-3.4-1.263-5.262-3.491-2.44-3.644,4.615-2.943,11.85-1.977,14.288Z" transform="translate(-371.303 -263.244)" fill="#eb9481"/>
                  <g id="Group_489" data-name="Group 489" transform="translate(5.15 1.115)">
                    <path id="Path_253" data-name="Path 253" d="M391.193,294.979s1.971-7.568.769-13.349c-.831-4-3.609-12.492-15.146-16.418-2.737-.932-7.3-.317-3.379,2.827,2.783,2.233,5.222,2.809,6.6,4.4,0,0-5.707,1.469-6.533,4.247a53.36,53.36,0,0,0-1.641,7.413,11.264,11.264,0,0,0,1.36.432s-.692,2.625,1.423,6.177Z" transform="translate(-371.866 -264.814)" fill="#eb9481"/>
                  </g>
                  <path id="Path_254" data-name="Path 254" d="M388.456,280.636a32.065,32.065,0,0,0-9.125-5.117c-4.173-1.276-12.556-2.608-13.466.482-.667,2.266,2.489,3.056,2.489,3.056s-3.581.18-3.736,2.358c-.141,1.985,2.337,2.45,2.337,2.45s-2.154.483-1.921,2.421c.28,2.332,4.747.938,7.071,3.055C372.626,289.817,388.456,280.636,388.456,280.636Z" transform="translate(-364.613 -266.394)" fill="#eb9481"/>
                  <g id="Group_490" data-name="Group 490" transform="translate(3.723 12.265)">
                    <path id="Path_255" data-name="Path 255" d="M380.24,282.011a17.385,17.385,0,0,0-10.3-1.159c-.087.02-.119.1-.035.1a42.822,42.822,0,0,1,10.323,1.1C380.25,282.057,380.259,282.022,380.24,282.011Z" transform="translate(-369.856 -280.518)" fill="#263238"/>
                  </g>
                  <g id="Group_491" data-name="Group 491" transform="translate(2.266 16.918)">
                    <path id="Path_256" data-name="Path 256" d="M378.234,288.087a19.51,19.51,0,0,0-10.351-.543c-.086.023-.112.1-.029.1a45.915,45.915,0,0,1,10.37.486C378.248,288.131,378.255,288.1,378.234,288.087Z" transform="translate(-367.804 -287.071)" fill="#263238"/>
                  </g>
                </g>
              </g>
              <g id="Group_495" data-name="Group 495" transform="translate(0 25.512)">
                <path id="Path_257" data-name="Path 257" d="M377.738,306.236s-9.353,21.266-15.308,24-9.635,2.395-11.919,2.178a6.129,6.129,0,0,1-2.46-1.026c-6.381-4.046-18.223-18.948-23.162-27.418-3.708-6.368-3.66-12.318,1.519-10.688a17.054,17.054,0,0,1,4.848,2.739c9.76,7.307,21,14.161,21.5,13.864s5.4-9.09,5.4-9.09Z" transform="translate(-322.291 -293.006)" fill="#2250b2"/>
                <g id="Group_494" data-name="Group 494" transform="translate(0.347 0.928)">
                  <path id="Path_258" data-name="Path 258" d="M366.386,323.044a5.064,5.064,0,0,0,.016,1.433,5.008,5.008,0,0,0,.384,1.38,5.007,5.007,0,0,0-.017-1.432A5.067,5.067,0,0,0,366.386,323.044Z" transform="translate(-335.411 -302.644)" fill="#fff"/>
                  <path id="Path_259" data-name="Path 259" d="M383.572,330.453a5.057,5.057,0,0,0,.017,1.432,4.992,4.992,0,0,0,.383,1.381,4.987,4.987,0,0,0-.017-1.433A5.056,5.056,0,0,0,383.572,330.453Z" transform="translate(-340.394 -304.793)" fill="#fff"/>
                  <path id="Path_260" data-name="Path 260" d="M353.269,337.68a5.09,5.09,0,0,0,.016,1.433,5.013,5.013,0,0,0,.384,1.38,5.547,5.547,0,0,0-.4-2.813Z" transform="translate(-331.608 -306.888)" fill="#fff"/>
                  <path id="Path_261" data-name="Path 261" d="M344.95,308.255a5.091,5.091,0,0,0,.016,1.433,5.008,5.008,0,0,0,.384,1.38,5.546,5.546,0,0,0-.4-2.813Z" transform="translate(-329.196 -298.356)" fill="#fff"/>
                  <path id="Path_262" data-name="Path 262" d="M342.28,320.132a5.064,5.064,0,0,0,1.433-.017,4.981,4.981,0,0,0,1.38-.383,4.986,4.986,0,0,0-1.433.017A5.069,5.069,0,0,0,342.28,320.132Z" transform="translate(-328.434 -301.671)" fill="#fff"/>
                  <path id="Path_263" data-name="Path 263" d="M377.361,323.618a5.064,5.064,0,0,0,1.433-.017,4.981,4.981,0,0,0,1.38-.383,5.01,5.01,0,0,0-1.433.017A5.07,5.07,0,0,0,377.361,323.618Z" transform="translate(-338.606 -302.682)" fill="#fff"/>
                  <path id="Path_264" data-name="Path 264" d="M359.541,334.134a5.059,5.059,0,0,0,1.432-.017,4.982,4.982,0,0,0,1.38-.383,5.545,5.545,0,0,0-2.812.4Z" transform="translate(-333.439 -305.731)" fill="#fff"/>
                  <path id="Path_265" data-name="Path 265" d="M393.431,313.284a5.059,5.059,0,0,0,1.432-.017,4.981,4.981,0,0,0,1.38-.383,5.545,5.545,0,0,0-2.812.4Z" transform="translate(-343.266 -299.685)" fill="#fff"/>
                  <path id="Path_266" data-name="Path 266" d="M376.071,343.945a5.065,5.065,0,0,0,1.433-.016,5.005,5.005,0,0,0,1.38-.383,4.986,4.986,0,0,0-1.433.016A5.094,5.094,0,0,0,376.071,343.945Z" transform="translate(-338.232 -308.576)" fill="#fff"/>
                  <path id="Path_267" data-name="Path 267" d="M324.008,294.361a4.756,4.756,0,0,1-1.228.355,1.884,1.884,0,0,1,.227-.383A3.958,3.958,0,0,1,324.008,294.361Z" transform="translate(-322.78 -294.314)" fill="#fff"/>
                  <path id="Path_268" data-name="Path 268" d="M357.157,315.691a5.539,5.539,0,0,0-1.706,2.272,5.024,5.024,0,0,0,1-1.025A5.082,5.082,0,0,0,357.157,315.691Z" transform="translate(-332.253 -300.512)" fill="#fff"/>
                  <path id="Path_269" data-name="Path 269" d="M373.645,332.434a5.064,5.064,0,0,0-1,1.025,5.011,5.011,0,0,0-.705,1.248,5.01,5.01,0,0,0,1-1.025A5.064,5.064,0,0,0,373.645,332.434Z" transform="translate(-337.034 -305.367)" fill="#fff"/>
                  <path id="Path_270" data-name="Path 270" d="M383.016,310.236a5.551,5.551,0,0,0-1.706,2.272,4.992,4.992,0,0,0,1-1.025A5.082,5.082,0,0,0,383.016,310.236Z" transform="translate(-339.751 -298.931)" fill="#fff"/>
                  <path id="Path_271" data-name="Path 271" d="M346.747,330.345a5.067,5.067,0,0,0-1,1.025,5.008,5.008,0,0,0-.7,1.248,5.01,5.01,0,0,0,1-1.025A5.064,5.064,0,0,0,346.747,330.345Z" transform="translate(-329.235 -304.761)" fill="#fff"/>
                  <path id="Path_272" data-name="Path 272" d="M334.332,302.178a5.067,5.067,0,0,0-1,1.025,4.977,4.977,0,0,0-.705,1.248,5.547,5.547,0,0,0,1.706-2.273Z" transform="translate(-325.635 -296.594)" fill="#fff"/>
                  <path id="Path_273" data-name="Path 273" d="M333.3,315.251a5.05,5.05,0,0,0-1.025-1,4.983,4.983,0,0,0-1.247-.7,4.988,4.988,0,0,0,1.025,1A5.042,5.042,0,0,0,333.3,315.251Z" transform="translate(-325.171 -299.89)" fill="#fff"/>
                  <path id="Path_274" data-name="Path 274" d="M391.572,321.846a5.085,5.085,0,0,0-1.025-1,5.01,5.01,0,0,0-1.248-.705,5.547,5.547,0,0,0,2.273,1.706Z" transform="translate(-342.068 -301.802)" fill="#fff"/>
                  <path id="Path_275" data-name="Path 275" d="M373.643,316.452a5.089,5.089,0,0,0-1.025-1,5.009,5.009,0,0,0-1.248-.705,5.547,5.547,0,0,0,2.273,1.706Z" transform="translate(-336.869 -300.238)" fill="#fff"/>
                  <path id="Path_276" data-name="Path 276" d="M353.9,327.511a5.084,5.084,0,0,0-1.025-1,5.005,5.005,0,0,0-1.247-.705,4.99,4.99,0,0,0,1.025,1A5.069,5.069,0,0,0,353.9,327.511Z" transform="translate(-331.144 -303.445)" fill="#fff"/>
                  <path id="Path_277" data-name="Path 277" d="M365.775,344.005a5.085,5.085,0,0,0-1.025-1,5,5,0,0,0-1.248-.705,5.011,5.011,0,0,0,1.025,1A5.067,5.067,0,0,0,365.775,344.005Z" transform="translate(-334.588 -308.227)" fill="#fff"/>
                </g>
                <path id="Path_278" data-name="Path 278" d="M348.052,331.385c-6.381-4.046-18.223-18.948-23.162-27.418-3.708-6.368-3.66-12.318,1.519-10.688C329.284,298.282,341.838,320.182,348.052,331.385Z" transform="translate(-322.291 -293.006)" fill="#263238"/>
                <path id="Path_279" data-name="Path 279" d="M389.681,314.837c-.715-.348-7.426-2.545-8.894-2.991s-7.453-2.327-9-2.661a.056.056,0,0,0-.036.105c1.461.616,7.492,2.531,8.978,3.016s8.171,2.512,8.934,2.634C389.725,314.949,389.729,314.861,389.681,314.837Z" transform="translate(-336.621 -297.697)" fill="#263238"/>
              </g>
            </g>
            <g id="Group_498" data-name="Group 498" transform="translate(20.676 29.153)">
              <path id="Path_280" data-name="Path 280" d="M330.927,344.99c-.677.729-44.108,2.136-44.329,1.865-.6-.742,4.747-28.363,9.187-38.941,5.692-13.564,8.951-14.81,10.892-15.633a15.45,15.45,0,0,1,8.121-.408c1.247.5,6.7,6.494,8.361,11.368C326.5,313.031,331.517,344.348,330.927,344.99Z" transform="translate(-286.552 -291.512)" fill="#2250b2"/>
              <g id="Group_497" data-name="Group 497" transform="translate(0.879 1.989)">
                <path id="Path_281" data-name="Path 281" d="M322.094,303.543a5.063,5.063,0,0,0,.016,1.433,5.012,5.012,0,0,0,.383,1.38,4.987,4.987,0,0,0-.016-1.433A5.087,5.087,0,0,0,322.094,303.543Z" transform="translate(-297.723 -296.99)" fill="#fff"/>
                <path id="Path_282" data-name="Path 282" d="M322.61,332.737a5.085,5.085,0,0,0,.016,1.432,5.012,5.012,0,0,0,.384,1.381,5.546,5.546,0,0,0-.4-2.813Z" transform="translate(-297.873 -305.455)" fill="#fff"/>
                <path id="Path_283" data-name="Path 283" d="M287.833,363.285a5.549,5.549,0,0,0,.4,2.813,5.527,5.527,0,0,0-.4-2.813Z" transform="translate(-287.789 -314.312)" fill="#fff"/>
                <path id="Path_284" data-name="Path 284" d="M312.893,364.486a5.064,5.064,0,0,0,.017,1.433,4.981,4.981,0,0,0,.383,1.38,4.986,4.986,0,0,0-.017-1.433A5.071,5.071,0,0,0,312.893,364.486Z" transform="translate(-295.055 -314.661)" fill="#fff"/>
                <path id="Path_285" data-name="Path 285" d="M333.527,350.971a5.089,5.089,0,0,0,.016,1.433,5.018,5.018,0,0,0,.384,1.381,5.01,5.01,0,0,0-.017-1.433A5.067,5.067,0,0,0,333.527,350.971Z" transform="translate(-301.038 -310.742)" fill="#fff"/>
                <path id="Path_286" data-name="Path 286" d="M304.1,321.012a5.064,5.064,0,0,0,.016,1.433,5.005,5.005,0,0,0,.383,1.38,4.986,4.986,0,0,0-.016-1.433A5.094,5.094,0,0,0,304.1,321.012Z" transform="translate(-292.507 -302.055)" fill="#fff"/>
                <path id="Path_287" data-name="Path 287" d="M301.141,346.72a5.064,5.064,0,0,0,.017,1.433,5.013,5.013,0,0,0,.383,1.38,5.013,5.013,0,0,0-.016-1.433A5.065,5.065,0,0,0,301.141,346.72Z" transform="translate(-291.648 -309.509)" fill="#fff"/>
                <path id="Path_288" data-name="Path 288" d="M337.892,326.341a5.064,5.064,0,0,0,.017,1.433,5.006,5.006,0,0,0,.383,1.38,5.011,5.011,0,0,0-.016-1.433A5.064,5.064,0,0,0,337.892,326.341Z" transform="translate(-302.304 -303.6)" fill="#fff"/>
                <path id="Path_289" data-name="Path 289" d="M316.186,315.7a5.526,5.526,0,0,0,2.813-.4,5.546,5.546,0,0,0-2.813.4Z" transform="translate(-296.023 -300.387)" fill="#fff"/>
                <path id="Path_290" data-name="Path 290" d="M301.442,334.966a5.064,5.064,0,0,0,1.433-.017,4.988,4.988,0,0,0,1.38-.383,5.546,5.546,0,0,0-2.813.4Z" transform="translate(-291.748 -305.972)" fill="#fff"/>
                <path id="Path_291" data-name="Path 291" d="M324.789,345.89a5.091,5.091,0,0,0,1.433-.016,5.008,5.008,0,0,0,1.38-.384,5.011,5.011,0,0,0-1.433.017A5.069,5.069,0,0,0,324.789,345.89Z" transform="translate(-298.517 -309.14)" fill="#fff"/>
                <path id="Path_292" data-name="Path 292" d="M307.461,358.269a5.536,5.536,0,0,0,2.813-.4,4.985,4.985,0,0,0-1.433.016A5.081,5.081,0,0,0,307.461,358.269Z" transform="translate(-293.493 -312.729)" fill="#fff"/>
                <path id="Path_293" data-name="Path 293" d="M341.633,357.925a5.092,5.092,0,0,0,1.433-.016,5.014,5.014,0,0,0,1.38-.384,5.546,5.546,0,0,0-2.813.4Z" transform="translate(-303.402 -312.629)" fill="#fff"/>
                <path id="Path_294" data-name="Path 294" d="M320.546,294.758a5.059,5.059,0,0,0,1.432-.016,5.005,5.005,0,0,0,1.38-.383,4.982,4.982,0,0,0-1.432.016A5.056,5.056,0,0,0,320.546,294.758Z" transform="translate(-297.287 -294.313)" fill="#fff"/>
                <path id="Path_295" data-name="Path 295" d="M313.7,300.092a5.065,5.065,0,0,0-1,1.025,5.012,5.012,0,0,0-.705,1.248,5.026,5.026,0,0,0,1-1.025A5.08,5.08,0,0,0,313.7,300.092Z" transform="translate(-294.807 -295.989)" fill="#fff"/>
                <path id="Path_296" data-name="Path 296" d="M327.961,321.917a5.085,5.085,0,0,0-1,1.025,4.974,4.974,0,0,0-.7,1.248,5.537,5.537,0,0,0,1.706-2.273Z" transform="translate(-298.943 -302.317)" fill="#fff"/>
                <path id="Path_297" data-name="Path 297" d="M342.137,343.845a5.063,5.063,0,0,0-1,1.025,5.01,5.01,0,0,0-.705,1.248,4.99,4.99,0,0,0,1-1.025A5.08,5.08,0,0,0,342.137,343.845Z" transform="translate(-303.053 -308.676)" fill="#fff"/>
                <path id="Path_298" data-name="Path 298" d="M326.371,360.511a5.064,5.064,0,0,0-1,1.025,4.986,4.986,0,0,0-.7,1.248,5.541,5.541,0,0,0,1.706-2.272Z" transform="translate(-298.482 -313.508)" fill="#fff"/>
                <path id="Path_299" data-name="Path 299" d="M293.739,355.314a5.068,5.068,0,0,0-1,1.025,5.006,5.006,0,0,0-.705,1.247,4.989,4.989,0,0,0,1-1.025A5.069,5.069,0,0,0,293.739,355.314Z" transform="translate(-289.02 -312.001)" fill="#fff"/>
                <path id="Path_300" data-name="Path 300" d="M312.5,339.839a5.539,5.539,0,0,0-1.706,2.272,4.991,4.991,0,0,0,1-1.025A5.068,5.068,0,0,0,312.5,339.839Z" transform="translate(-294.459 -307.514)" fill="#fff"/>
                <path id="Path_301" data-name="Path 301" d="M334.332,302.178a5.067,5.067,0,0,0-1,1.025,4.977,4.977,0,0,0-.705,1.248,5.547,5.547,0,0,0,1.706-2.273Z" transform="translate(-300.79 -296.594)" fill="#fff"/>
                <path id="Path_302" data-name="Path 302" d="M333.3,315.251a5.05,5.05,0,0,0-1.025-1,4.983,4.983,0,0,0-1.247-.7,4.988,4.988,0,0,0,1.025,1A5.042,5.042,0,0,0,333.3,315.251Z" transform="translate(-300.326 -299.89)" fill="#fff"/>
                <path id="Path_303" data-name="Path 303" d="M293.573,339.228a4.875,4.875,0,0,1-1.193-.667c.028-.128.057-.263.085-.391l.078.057A5.09,5.09,0,0,1,293.573,339.228Z" transform="translate(-289.12 -307.03)" fill="#fff"/>
                <path id="Path_304" data-name="Path 304" d="M335.354,338.494a5.062,5.062,0,0,0-1.025-1,5.01,5.01,0,0,0-1.248-.705,5.538,5.538,0,0,0,2.272,1.706Z" transform="translate(-300.922 -306.629)" fill="#fff"/>
                <path id="Path_305" data-name="Path 305" d="M337.687,366.972a5.065,5.065,0,0,0-1.025-1,5.008,5.008,0,0,0-1.248-.7,5.008,5.008,0,0,0,1.025,1A5.082,5.082,0,0,0,337.687,366.972Z" transform="translate(-301.599 -314.887)" fill="#fff"/>
                <path id="Path_306" data-name="Path 306" d="M306.533,310.741a5.069,5.069,0,0,0-1.025-1,4.973,4.973,0,0,0-1.248-.7,5.011,5.011,0,0,0,1.025,1A5.066,5.066,0,0,0,306.533,310.741Z" transform="translate(-292.565 -298.582)" fill="#fff"/>
                <path id="Path_307" data-name="Path 307" d="M318.839,352.256a5.061,5.061,0,0,0-1.025-1,5.008,5.008,0,0,0-1.248-.7,4.989,4.989,0,0,0,1.025,1A5.058,5.058,0,0,0,318.839,352.256Z" transform="translate(-296.133 -310.62)" fill="#fff"/>
                <path id="Path_308" data-name="Path 308" d="M300.973,365.77a5.063,5.063,0,0,0-1.025-1,5.01,5.01,0,0,0-1.248-.705,5.027,5.027,0,0,0,1.025,1A5.082,5.082,0,0,0,300.973,365.77Z" transform="translate(-290.953 -314.538)" fill="#fff"/>
                <path id="Path_309" data-name="Path 309" d="M315.182,326.731a5.085,5.085,0,0,0-1.025-1,5,5,0,0,0-1.248-.705,4.992,4.992,0,0,0,1.025,1A5.055,5.055,0,0,0,315.182,326.731Z" transform="translate(-295.073 -303.219)" fill="#fff"/>
              </g>
            </g>
            <g id="Group_506" data-name="Group 506" transform="translate(0 30.308)">
              <g id="Group_502" data-name="Group 502" transform="translate(0.531 0.16)">
                <path id="Path_310" data-name="Path 310" d="M291.288,296.543c-18.6,14.255-34.61,33.945-33,40.115,1.707,6.523,14.726,13.721,26.173,15.1,2.345.283,9.427-16.957,7.02-17.724-1.875-.6-10.4-2.932-11.422-4.088-.714-.8,12.3-19.481,16.5-29.209C300.954,290.56,296.267,292.727,291.288,296.543Z" transform="translate(-258.18 -293.365)" fill="#eb9481"/>
                <g id="Group_501" data-name="Group 501" transform="translate(21.614 40.197)">
                  <g id="Group_499" data-name="Group 499">
                    <path id="Path_311" data-name="Path 311" d="M295.48,349.977s7.155.651,11.814,1.3c2.6.36,7,1.375,8.788,2.514,2.675,1.7,12.776,10.531,10.688,13.026-1.89,2.259-4.808-1.26-4.808-1.26s3.551,3.546.988,5.21c-2.587,1.679-5.942-3.275-5.942-3.275s4.031,3.5,1.126,5.019c-2.523,1.316-7.006-3.968-7.006-3.968s4.635,3.213,2.183,4.813c-2.71,1.769-10.428-5.31-10.428-5.31a33.738,33.738,0,0,1-14.205-.808C287.885,367.019,295.48,349.977,295.48,349.977Z" transform="translate(-288.62 -349.977)" fill="#eb9481"/>
                  </g>
                  <g id="Group_500" data-name="Group 500" transform="translate(18.257 8.894)">
                    <path id="Path_312" data-name="Path 312" d="M327.379,373.456c-.28-.378-.569-.748-.851-1.125A23.138,23.138,0,0,0,324.8,370.2c-.614-.648-1.255-1.266-1.916-1.867-.7-.635-1.465-1.2-2.146-1.852a.052.052,0,1,0-.07.078,24.355,24.355,0,0,1,1.927,2.021c.616.673,1.224,1.355,1.831,2.037s1.228,1.289,1.84,1.938c.3.324.6.662.886,1a7.452,7.452,0,0,0,.849.944c.033.026.074-.016.058-.05A5.781,5.781,0,0,0,327.379,373.456Z" transform="translate(-316.163 -363.653)" fill="#263238"/>
                    <path id="Path_313" data-name="Path 313" d="M333.734,369.939a36.586,36.586,0,0,0-3.124-4.024,25.64,25.64,0,0,0-3.805-3.4.053.053,0,0,0-.07.078c1.149,1.26,2.318,2.5,3.486,3.749.571.608,3.078,3.45,3.378,3.715C333.671,370.118,333.772,370.016,333.734,369.939Z" transform="translate(-317.925 -362.504)" fill="#263238"/>
                    <path id="Path_314" data-name="Path 314" d="M321.293,376.849a36.082,36.082,0,0,0-3.007-3.729,32.843,32.843,0,0,0-3.868-3.01c-.052-.029-.114.038-.07.078,1.208,1.1,2.43,2.17,3.585,3.324.562.562,2.675,2.934,3.259,3.424C321.245,376.98,321.325,376.907,321.293,376.849Z" transform="translate(-314.333 -364.707)" fill="#263238"/>
                  </g>
                </g>
              </g>
              <g id="Group_505" data-name="Group 505">
                <path id="Path_315" data-name="Path 315" d="M292.056,333.26l-10.014,19.133s-22.562-5.96-24.506-16.173,23.9-33.706,31.873-39.262,12.839-6.3,6.552,6.346-16.028,25.659-15.233,26.306C281.4,330.159,292.056,333.26,292.056,333.26Z" transform="translate(-257.432 -293.14)" fill="#2250b2"/>
                <g id="Group_503" data-name="Group 503" transform="translate(2.632 2.835)">
                  <path id="Path_316" data-name="Path 316" d="M283.808,329.964a5.55,5.55,0,0,0,.4,2.813,5.526,5.526,0,0,0-.4-2.813Z" transform="translate(-267.699 -306.652)" fill="#fff"/>
                  <path id="Path_317" data-name="Path 317" d="M287.833,363.285a5.549,5.549,0,0,0,.4,2.813,5.527,5.527,0,0,0-.4-2.813Z" transform="translate(-268.866 -316.314)" fill="#fff"/>
                  <path id="Path_318" data-name="Path 318" d="M271.436,347.064a5.064,5.064,0,0,0,.017,1.433,4.981,4.981,0,0,0,.383,1.38,4.98,4.98,0,0,0-.017-1.432A5.067,5.067,0,0,0,271.436,347.064Z" transform="translate(-264.112 -311.61)" fill="#fff"/>
                  <path id="Path_319" data-name="Path 319" d="M304.143,321.081c-.014.021-.028.05-.043.071a.965.965,0,0,1,.014-.142A.3.3,0,0,1,304.143,321.081Z" transform="translate(-273.596 -304.056)" fill="#fff"/>
                  <path id="Path_320" data-name="Path 320" d="M296.524,303.4a5.539,5.539,0,0,0,.4,2.813,4.987,4.987,0,0,0-.016-1.433A5.081,5.081,0,0,0,296.524,303.4Z" transform="translate(-271.386 -298.949)" fill="#fff"/>
                  <path id="Path_321" data-name="Path 321" d="M301.546,349.944a5.315,5.315,0,0,1-.383-1.378q-.032-.213-.043-.426l.362.107c.021.085.035.177.05.263A5.1,5.1,0,0,1,301.546,349.944Z" transform="translate(-272.732 -311.922)" fill="#fff"/>
                  <path id="Path_322" data-name="Path 322" d="M303.7,297.577a5.059,5.059,0,0,0,1.432-.017,4.993,4.993,0,0,0,1.381-.383,4.986,4.986,0,0,0-1.433.017A5.056,5.056,0,0,0,303.7,297.577Z" transform="translate(-273.479 -297.132)" fill="#fff"/>
                  <path id="Path_323" data-name="Path 323" d="M270.628,331.7a5.064,5.064,0,0,0,1.433-.017,5,5,0,0,0,1.38-.383,5.007,5.007,0,0,0-1.432.016A5.07,5.07,0,0,0,270.628,331.7Z" transform="translate(-263.89 -307.026)" fill="#fff"/>
                  <path id="Path_324" data-name="Path 324" d="M284.606,348.8a5.064,5.064,0,0,0,1.433-.016,5.007,5.007,0,0,0,1.38-.383,4.985,4.985,0,0,0-1.433.016A5.07,5.07,0,0,0,284.606,348.8Z" transform="translate(-267.943 -311.985)" fill="#fff"/>
                  <path id="Path_325" data-name="Path 325" d="M276.306,368.494a5.064,5.064,0,0,0,1.433-.017,5.012,5.012,0,0,0,1.38-.383,4.987,4.987,0,0,0-1.433.017A5.039,5.039,0,0,0,276.306,368.494Z" transform="translate(-265.537 -317.695)" fill="#fff"/>
                  <path id="Path_326" data-name="Path 326" d="M261.139,354.805a5.065,5.065,0,0,0,1.433-.017,5.005,5.005,0,0,0,1.38-.383,4.988,4.988,0,0,0-1.433.017A5.068,5.068,0,0,0,261.139,354.805Z" transform="translate(-261.139 -313.726)" fill="#fff"/>
                  <path id="Path_327" data-name="Path 327" d="M290.476,314.384a5.064,5.064,0,0,0,1.433-.017,4.989,4.989,0,0,0,1.38-.383,5.011,5.011,0,0,0-1.433.017A5.062,5.062,0,0,0,290.476,314.384Z" transform="translate(-269.646 -302.005)" fill="#fff"/>
                  <path id="Path_328" data-name="Path 328" d="M313.7,300.092a5.065,5.065,0,0,0-1,1.025,5.012,5.012,0,0,0-.705,1.248,5.026,5.026,0,0,0,1-1.025A5.08,5.08,0,0,0,313.7,300.092Z" transform="translate(-275.884 -297.99)" fill="#fff"/>
                  <path id="Path_329" data-name="Path 329" d="M293.739,323.374a5.064,5.064,0,0,0-1,1.025,5.01,5.01,0,0,0-.705,1.248,4.991,4.991,0,0,0,1-1.025A5.081,5.081,0,0,0,293.739,323.374Z" transform="translate(-270.097 -304.741)" fill="#fff"/>
                  <path id="Path_330" data-name="Path 330" d="M293.739,355.314a5.068,5.068,0,0,0-1,1.025,5.006,5.006,0,0,0-.705,1.247,4.989,4.989,0,0,0,1-1.025A5.069,5.069,0,0,0,293.739,355.314Z" transform="translate(-270.097 -314.002)" fill="#fff"/>
                  <path id="Path_331" data-name="Path 331" d="M272.93,359.618a5.062,5.062,0,0,0-1,1.025,5.01,5.01,0,0,0-.705,1.248,5.01,5.01,0,0,0,1-1.025A5.065,5.065,0,0,0,272.93,359.618Z" transform="translate(-264.063 -315.25)" fill="#fff"/>
                  <path id="Path_332" data-name="Path 332" d="M278.012,339.191a5.064,5.064,0,0,0-1,1.025,5.006,5.006,0,0,0-.705,1.247,4.99,4.99,0,0,0,1-1.025A5.069,5.069,0,0,0,278.012,339.191Z" transform="translate(-265.537 -309.327)" fill="#fff"/>
                  <path id="Path_333" data-name="Path 333" d="M292.538,372.121a5.067,5.067,0,0,0-1,1.025,4.988,4.988,0,0,0-.705,1.248,5.547,5.547,0,0,0,1.706-2.273Z" transform="translate(-269.749 -318.876)" fill="#fff"/>
                  <path id="Path_334" data-name="Path 334" d="M292.5,338.29v.007c-.057.092-.114.185-.163.27-.156-.092-.305-.2-.454-.305a5.054,5.054,0,0,1-1.022-1,5.2,5.2,0,0,1,1.243.7C292.237,338.069,292.372,338.176,292.5,338.29Z" transform="translate(-269.757 -308.767)" fill="#fff"/>
                  <path id="Path_335" data-name="Path 335" d="M264.751,342.9a5.064,5.064,0,0,0-1.025-1,5.011,5.011,0,0,0-1.248-.705,5.009,5.009,0,0,0,1.025,1A5.08,5.08,0,0,0,264.751,342.9Z" transform="translate(-261.528 -309.907)" fill="#fff"/>
                  <path id="Path_336" data-name="Path 336" d="M282.095,357.985a5.067,5.067,0,0,0-1.025-1,4.975,4.975,0,0,0-1.248-.705,5.012,5.012,0,0,0,1.025,1A5.069,5.069,0,0,0,282.095,357.985Z" transform="translate(-266.556 -314.282)" fill="#fff"/>
                  <path id="Path_337" data-name="Path 337" d="M306.533,310.741a5.069,5.069,0,0,0-1.025-1,4.973,4.973,0,0,0-1.248-.7,5.011,5.011,0,0,0,1.025,1A5.066,5.066,0,0,0,306.533,310.741Z" transform="translate(-273.642 -300.583)" fill="#fff"/>
                  <path id="Path_338" data-name="Path 338" d="M282.8,321.846a5.551,5.551,0,0,0-2.272-1.706,4.989,4.989,0,0,0,1.025,1A5.069,5.069,0,0,0,282.8,321.846Z" transform="translate(-266.761 -303.803)" fill="#fff"/>
                </g>
                <path id="Path_339" data-name="Path 339" d="M287.545,366.095c.48-.633,3.939-6.789,4.662-8.143s3.731-6.858,4.36-8.315a.055.055,0,0,0-.1-.055c-.889,1.313-3.939,6.858-4.7,8.222s-4.052,7.527-4.32,8.252C287.426,366.116,287.512,366.138,287.545,366.095Z" transform="translate(-266.135 -309.498)" fill="#263238"/>
                <g id="Group_504" data-name="Group 504" transform="translate(22.993 14.232)">
                  <path id="Path_340" data-name="Path 340" d="M301.565,339.005s-.359.6-.47.781c-.014.023-.067.083-.026-.012.063-.146.323-.67.323-.67-3.053-.7-6.092-1.47-9.1-2.4-.376-.121-.753-.241-1.129-.383a5.377,5.377,0,0,1-1.15-.547.71.71,0,0,1-.085-.078.655.655,0,0,1-.107-.177.733.733,0,0,1,.021-.334c.036-.1.078-.213.121-.305.078-.185.17-.369.256-.547.177-.355.369-.7.554-1.051.753-1.392,1.534-2.755,2.336-4.111,1.626-2.7,3.245-5.4,4.928-8.045,1.589-2.514,3.245-5.354,4.913-7.812.1-.146.354-.284.053.258-1.534,2.748-2.922,5.118-4.505,7.83l-4.786,8.123c-.8,1.356-1.6,2.7-2.364,4.069-.192.341-.383.682-.561,1.03-.092.17-.17.341-.256.511-.028.071-.05.128-.071.192a.3.3,0,0,1-.05-.035s-.014,0-.014-.007a.1.1,0,0,1,.014.05c.028.007.021.064.028.043s.014-.035.021-.05a6.641,6.641,0,0,0,.923.433l1.094.4c1.47.533,2.968,1.008,4.473,1.47Z" transform="translate(-289.816 -313.184)" fill="#263238"/>
                  <path id="Path_341" data-name="Path 341" d="M290.7,344.353c-.007.014-.014.036-.021.05s0-.035-.028-.043a.1.1,0,0,0-.014-.05c0,.007.014.007.014.007A.3.3,0,0,0,290.7,344.353Z" transform="translate(-290.055 -322.209)" fill="#263238"/>
                  <path id="Path_342" data-name="Path 342" d="M306.016,318.369c.214-.163.2-.029.1.094-.546.687-1.387,1.451-1.995,2.078a23.939,23.939,0,0,1-2.289,2.08,24.221,24.221,0,0,1,2.036-2.329A21.16,21.16,0,0,1,306.016,318.369Z" transform="translate(-293.299 -314.665)" fill="#263238"/>
                </g>
              </g>
            </g>
            <g id="Group_520" data-name="Group 520" transform="translate(36.268)">
              <g id="Group_519" data-name="Group 519">
                <g id="Group_508" data-name="Group 508" transform="translate(3.02 20.882)">
                  <g id="Group_507" data-name="Group 507">
                    <path id="Path_343" data-name="Path 343" d="M321.456,296.038c-2.438.7-6.843-2.873-8.655-5.848-.123-.2.1-2.425.234-5.136.077-1.646.124-3.48.046-5.156-.017-.344,10.634,2.067,10.634,2.067A26.748,26.748,0,0,0,323,288.45a3.776,3.776,0,0,0,.1.684c0,.031.016.069.021.113C323.395,290.545,323.812,295.363,321.456,296.038Z" transform="translate(-312.764 -279.865)" fill="#eb9481"/>
                  </g>
                  <path id="Path_344" data-name="Path 344" d="M314.122,279.932c.62,2.812,2.7,9.578,8.317,9.445a6.354,6.354,0,0,0,1.073-.109.527.527,0,0,0-.018-.114,4.143,4.143,0,0,1-.107-.682,26.755,26.755,0,0,1,.72-6.49S316.424,280.243,314.122,279.932Z" transform="translate(-313.158 -279.884)" fill="#263238"/>
                </g>
                <g id="Group_518" data-name="Group 518">
                  <path id="Path_345" data-name="Path 345" d="M331.673,256.292a7.151,7.151,0,0,1,4.05,4.884c.631,3.47-.156,7.112-.456,7.29S331.673,256.292,331.673,256.292Z" transform="translate(-315.227 -252.147)" fill="#263238"/>
                  <g id="Group_509" data-name="Group 509" transform="translate(1.821 2.146)">
                    <path id="Path_346" data-name="Path 346" d="M311.306,259.86c-1,3.773,1.382,14.473,4.126,16.775,3.978,3.336,10.287,3.43,13.071-1.305,2.7-4.59-.649-18.48-3.7-20.55C320.322,251.73,312.778,254.287,311.306,259.86Z" transform="translate(-311.075 -253.477)" fill="#eb9481"/>
                  </g>
                  <path id="Path_347" data-name="Path 347" d="M316.831,285.956v0" transform="translate(-310.923 -260.747)" fill="none" stroke="#f5a79e" stroke-linecap="round" stroke-linejoin="round"/>
                  <g id="Group_515" data-name="Group 515" transform="translate(10.116 10.695)">
                    <g id="Group_510" data-name="Group 510" transform="translate(1.374 4.263)">
                      <path id="Path_348" data-name="Path 348" d="M326.675,272.391c-.012-.026-.05.046-.042.076.18.716.264,1.567-.337,1.948-.018.011-.009.048.015.039C327.084,274.169,326.959,273.04,326.675,272.391Z" transform="translate(-325.155 -271.771)" fill="#263238"/>
                      <path id="Path_349" data-name="Path 349" d="M325.4,271.527c-1.179.164-.765,2.511.328,2.359C326.808,273.736,326.393,271.389,325.4,271.527Z" transform="translate(-324.694 -271.521)" fill="#263238"/>
                    </g>
                    <g id="Group_511" data-name="Group 511" transform="translate(6.965 3.285)">
                      <path id="Path_350" data-name="Path 350" d="M332.569,271.408c0-.029.063.024.067.054.106.731.349,1.551,1.049,1.676.022,0,.026.041,0,.042C332.864,273.208,332.552,272.117,332.569,271.408Z" transform="translate(-332.568 -270.508)" fill="#263238"/>
                      <path id="Path_351" data-name="Path 351" d="M333.084,270.169c1.154-.3,1.66,2.034.591,2.307C332.623,272.746,332.117,270.417,333.084,270.169Z" transform="translate(-332.568 -270.144)" fill="#263238"/>
                    </g>
                    <path id="Path_352" data-name="Path 352" d="M323.433,268.5a9.244,9.244,0,0,0,.924-.323,1.582,1.582,0,0,0,.879-.509.5.5,0,0,0-.08-.611,1.251,1.251,0,0,0-1.259-.131,1.834,1.834,0,0,0-1.059.792A.537.537,0,0,0,323.433,268.5Z" transform="translate(-322.758 -265.894)" fill="#263238"/>
                    <path id="Path_353" data-name="Path 353" d="M333.527,266.924a9.147,9.147,0,0,1-.976-.077,1.579,1.579,0,0,1-.98-.268.5.5,0,0,1-.078-.61,1.249,1.249,0,0,1,1.184-.448,1.835,1.835,0,0,1,1.226.5A.538.538,0,0,1,333.527,266.924Z" transform="translate(-325.271 -265.517)" fill="#263238"/>
                    <path id="Path_354" data-name="Path 354" d="M326.776,282.206c.2.14.419.343.687.319a1.958,1.958,0,0,0,.75-.321.026.026,0,0,1,.038.032.993.993,0,0,1-.853.557.787.787,0,0,1-.686-.542C326.693,282.211,326.746,282.186,326.776,282.206Z" transform="translate(-323.903 -270.354)" fill="#263238"/>
                    <g id="Group_513" data-name="Group 513" transform="translate(3.229 1.089)">
                      <g id="Group_512" data-name="Group 512">
                        <path id="Path_355" data-name="Path 355" d="M327.329,275.5a2.51,2.51,0,0,0,1.847.809,3.144,3.144,0,0,0,.9-.116.855.855,0,0,0,.166-.05c.052-.016.1-.03.156-.053a.184.184,0,0,0,.117-.188V275.9a.339.339,0,0,0-.02-.073v0l-.013-.064c-.084-.562-.288-1.4-.288-1.4.222.066,1.348.351,1.28.061a37.861,37.861,0,0,0-2.284-7.322.068.068,0,0,0-.129.042c.459,2.324,1.323,4.552,1.821,6.879a4.413,4.413,0,0,0-1.231-.148c-.075.037.425,1.62.442,1.875a.1.1,0,0,1,0,.028,3.484,3.484,0,0,1-2.7-.343C327.324,275.393,327.275,275.452,327.329,275.5Z" transform="translate(-327.305 -267.051)" fill="#263238"/>
                      </g>
                    </g>
                    <g id="Group_514" data-name="Group 514" transform="translate(3.114 9.52)">
                      <path id="Path_356" data-name="Path 356" d="M329.646,279.413a2.984,2.984,0,0,1-1.015,1.119,1.341,1.341,0,0,1-.794.192c-.608-.05-.716-.58-.69-1.055a3.191,3.191,0,0,1,.137-.743A3.859,3.859,0,0,0,329.646,279.413Z" transform="translate(-327.144 -278.925)" fill="#263238"/>
                      <path id="Path_357" data-name="Path 357" d="M328.632,280.834a1.341,1.341,0,0,1-.794.192c-.608-.05-.716-.58-.69-1.055A1.386,1.386,0,0,1,328.632,280.834Z" transform="translate(-327.144 -279.227)" fill="#ff98b9"/>
                    </g>
                  </g>
                  <g id="Group_516" data-name="Group 516" transform="translate(0.231)">
                    <path id="Path_358" data-name="Path 358" d="M312.065,269.134c1.26.168,2.039-3.669,2.2-5.121.141-1.279-.109-5.222-.1-5.5s5.8,2.559,8.677,1.172,4.444-4.438,4.275-5.711-4.459-3.863-7.735-3.486-6.984,5.239-6.984,5.239a15.381,15.381,0,0,0,1.121-2.171,3.6,3.6,0,0,0-2.171,2.609s.1-1.945-.062-1.954-1.528,1.871-.956,3.028c0,0-1.615,1.948-1.49,3.769S310.584,268.937,312.065,269.134Z" transform="translate(-308.836 -250.455)" fill="#263238"/>
                    <path id="Path_359" data-name="Path 359" d="M326.527,261.545a10.3,10.3,0,0,1-2.686,1.5,6.9,6.9,0,0,1-3.346.021,10.448,10.448,0,0,1-3.141-1.216c-.86-.5-1.656-1.135-2.555-1.556-.225-.105-.41.225-.256.39a11.019,11.019,0,0,0,6.159,3.124,6.326,6.326,0,0,0,5.841-2.239C326.552,261.557,326.541,261.535,326.527,261.545Z" transform="translate(-310.474 -253.301)" fill="#263238"/>
                  </g>
                  <g id="Group_517" data-name="Group 517" transform="translate(0 14.67)">
                    <path id="Path_360" data-name="Path 360" d="M313.2,273.668s-2.636-3.339-4.165-2.379.594,5.9,2.489,6.481a1.889,1.889,0,0,0,2.468-1.16Z" transform="translate(-308.511 -271.115)" fill="#eb9481"/>
                    <path id="Path_361" data-name="Path 361" d="M310.145,273.331a.026.026,0,0,0-.007.05,4.776,4.776,0,0,1,2.637,2.839,1.043,1.043,0,0,0-1.574-.195c-.033.026,0,.077.039.067a1.162,1.162,0,0,1,1.3.331,5.626,5.626,0,0,1,.672,1c.067.113.274.038.222-.093l-.012-.029C313.358,275.639,311.934,273.395,310.145,273.331Z" transform="translate(-308.977 -271.757)" fill="#263238"/>
                  </g>
                </g>
              </g>
            </g>
            <path id="Path_362" data-name="Path 362" d="M311.01,295.007a48.682,48.682,0,0,0,3.716,4.043,8.046,8.046,0,0,0,4.506,2.361c1.667.153,3.332-.188,3.947-2.228a12.294,12.294,0,0,0,.12-5.353.063.063,0,1,1,.124-.02c.38,2.668.78,6.8-1.645,7.725-2.712,1.032-5.374-.364-7.281-2.237a25.173,25.173,0,0,1-3.535-4.25C310.942,295.017,310.986,294.979,311.01,295.007Z" transform="translate(-272.952 -263.008)" fill="#263238"/>
          </g>
        </g>
      </g>
    </g>
  </g>
</svg>
