<?xml version="1.0" encoding="utf-8"?>
<!-- Generator: Adobe Illustrator 25.2.0, SVG Export Plug-In . SVG Version: 6.00 Build 0)  -->
<svg version="1.1" id="Layer_1" xmlns="http://www.w3.org/2000/svg" xmlns:xlink="http://www.w3.org/1999/xlink" x="0px" y="0px"
	 viewBox="0 0 1046 599.6" style="enable-background:new 0 0 1046 599.6;" xml:space="preserve">
<style type="text/css">
	.st0{fill:#1e4496;stroke:#1e4496;stroke-width:1.5161;stroke-miterlimit:10;}
	.st1{fill:#1e4496;stroke:#1e4496;stroke-width:1.5186;stroke-miterlimit:10;}
	.st2{fill:#1e4496;stroke:#1e4496;stroke-width:1.5179;stroke-miterlimit:10;}
	.st3{fill:#1e4496;stroke:#1e4496;stroke-width:1.6086;stroke-miterlimit:10;}
</style>
<g>
	<rect x="163.4" y="294.9" class="st0" width="47.7" height="31.3"/>
	<path class="st1" d="M232.3,223.9H95.7v209h183.8v-209v-57.2h-47.1V223.9z M232.3,388.6h-89.6V271.6h89.6V388.6z"/>
	<polygon class="st2" points="517.8,432.3 568.3,432.3 568.6,356.5 668.3,356.5 668.3,309.6 568.6,309.6 568.6,271.7 714.8,271.7 
		714.8,223.9 517.8,223.9 	"/>
	<polygon class="st3" points="899.1,223.9 842.1,316.7 785.2,223.9 734.6,223.9 816.8,357.3 816.8,432.7 867.4,432.7 867.4,357.3 
		949.7,223.9 	"/>
	<path class="st0" d="M298.4,432.9h200.4V223.7H298.4V432.9z M345.3,264.6h109.4v126.7H345.3V264.6z"/>
	<path class="st0" d="M404.9,328.6c-1.9,1.7-4.5,1.5-6.1-0.4c-5.6-6.6-11.1-13.4-16.9-19.8c-5.5-6.1-11.3-12-17-17.9
		c-0.2,0.2-0.3,0.3-0.5,0.5c1,1.6,2.1,3.2,3.1,4.8c8.7,12.9,18.2,25,28.1,36.7c0.6,0.7,1.1,1.3,1,2.7c-0.4,3.2,2.4,6,5.3,5.9
		c3-0.1,5.3-2.9,4.9-6.2c-0.2-1.4,0.2-2.2,1-3.1c3.9-4.5,7.7-9.1,11.5-13.7c1-1.2,1.9-2.5,2.9-3.8c-0.8,0-1.3,0.3-1.7,0.7
		C415.3,319.5,410.1,324,404.9,328.6z"/>
</g>
</svg>
