<svg xmlns="http://www.w3.org/2000/svg" version="1.1" xmlns:xlink="http://www.w3.org/1999/xlink" xmlns:svgjs="http://svgjs.com/svgjs" width="1200" height="300" preserveAspectRatio="none" viewBox="0 0 1200 300"><g mask="url(&quot;#SvgjsMask1025&quot;)" fill="none"><path d="M1425.86 40.13C1291.01 41.45 1166.45 184.16 906.01 184.13 645.56 184.1 526.2-21.36 386.15-25.24" stroke="rgba(255, 204, 78, 1)" stroke-width="2"></path><path d="M1381.27 75.92C1260.74 77.29 1150.65 210.99 918.4 210.92 686.15 210.85 582.77 3.34 455.53-1.66" stroke="rgba(255, 204, 78, 1)" stroke-width="2"></path><path d="M1288.09 278.08C1184.34 276.97 1101.6 168.69 889.05 164.08 676.5 159.47 599.34-11.51 490.01-15.59" stroke="rgba(255, 204, 78, 1)" stroke-width="2"></path><path d="M1216.77 75.83C1067.15 76.02 847.45 156.97 623.79 156.83 400.13 156.69 413.38-13.63 327.3-20.19" stroke="rgba(255, 204, 78, 1)" stroke-width="2"></path><path d="M1419.89 217.77C1335.11 214.26 1276.84 77.64 1112.52 73.77 948.2 69.9 885.16-14.51 805.15-15.4" stroke="rgba(255, 204, 78, 1)" stroke-width="2"></path></g><defs><mask id="SvgjsMask1025"><rect width="1200" height="300" fill="#ffffff"></rect></mask></defs></svg>