<svg xmlns="http://www.w3.org/2000/svg" version="1.1" xmlns:xlink="http://www.w3.org/1999/xlink" xmlns:svgjs="http://svgjs.com/svgjs" width="1440" height="560" preserveAspectRatio="none" viewBox="0 0 1440 560"><g mask="url(&quot;#SvgjsMask1012&quot;)" fill="none"><path d="M-104.81 554.38L-104.81 554.38" stroke="rgba(255, 204, 78, 0.53)" stroke-width="1.5"></path><path d="M-104.81 554.38L-68.5 671.56" stroke="rgba(255, 204, 78, 0.53)" stroke-width="1.5"></path><path d="M-104.81 554.38L103.35 537.8" stroke="rgba(255, 204, 78, 0.53)" stroke-width="1.5"></path><path d="M-104.81 554.38L89.28 637.69" stroke="rgba(255, 204, 78, 0.53)" stroke-width="1.5"></path><path d="M-104.81 554.38L74.45 360.17" stroke="rgba(255, 204, 78, 0.53)" stroke-width="1.5"></path><path d="M-68.5 671.56L-68.5 671.56" stroke="rgba(255, 204, 78, 0.53)" stroke-width="1.5"></path><path d="M-68.5 671.56L89.28 637.69" stroke="rgba(255, 204, 78, 0.53)" stroke-width="1.5"></path><path d="M-68.5 671.56L103.35 537.8" stroke="rgba(255, 204, 78, 0.53)" stroke-width="1.5"></path><path d="M-68.5 671.56L236.28 645.77" stroke="rgba(255, 204, 78, 0.53)" stroke-width="1.5"></path><path d="M-68.5 671.56L74.45 360.17" stroke="rgba(255, 204, 78, 0.53)" stroke-width="1.5"></path><path d="M74.45 360.17L74.45 360.17" stroke="rgba(255, 204, 78, 0.53)" stroke-width="1.5"></path><path d="M74.45 360.17L192.67 355.06" stroke="rgba(255, 204, 78, 0.53)" stroke-width="1.5"></path><path d="M74.45 360.17L103.35 537.8" stroke="rgba(255, 204, 78, 0.53)" stroke-width="1.5"></path><path d="M74.45 360.17L89.28 637.69" stroke="rgba(255, 204, 78, 0.53)" stroke-width="1.5"></path><path d="M103.35 537.8L103.35 537.8" stroke="rgba(255, 204, 78, 0.53)" stroke-width="1.5"></path><path d="M103.35 537.8L89.28 637.69" stroke="rgba(255, 204, 78, 0.53)" stroke-width="1.5"></path><path d="M103.35 537.8L236.28 645.77" stroke="rgba(255, 204, 78, 0.53)" stroke-width="1.5"></path><path d="M89.28 637.69L89.28 637.69" stroke="rgba(255, 204, 78, 0.53)" stroke-width="1.5"></path><path d="M89.28 637.69L236.28 645.77" stroke="rgba(255, 204, 78, 0.53)" stroke-width="1.5"></path><path d="M192.67 355.06L192.67 355.06" stroke="rgba(255, 204, 78, 0.53)" stroke-width="1.5"></path><path d="M192.67 355.06L366.79 387.72" stroke="rgba(255, 204, 78, 0.53)" stroke-width="1.5"></path><path d="M236.28 645.77L236.28 645.77" stroke="rgba(255, 204, 78, 0.53)" stroke-width="1.5"></path><path d="M236.28 645.77L396.94 550.43" stroke="rgba(255, 204, 78, 0.53)" stroke-width="1.5"></path><path d="M236.28 645.77L366.79 387.72" stroke="rgba(255, 204, 78, 0.53)" stroke-width="1.5"></path><path d="M236.28 645.77L528.57 653.49" stroke="rgba(255, 204, 78, 0.53)" stroke-width="1.5"></path><path d="M236.28 645.77L192.67 355.06" stroke="rgba(255, 204, 78, 0.53)" stroke-width="1.5"></path><path d="M366.79 387.72L366.79 387.72" stroke="rgba(255, 204, 78, 0.53)" stroke-width="1.5"></path><path d="M366.79 387.72L493.52 369.53" stroke="rgba(255, 204, 78, 0.53)" stroke-width="1.5"></path><path d="M366.79 387.72L396.94 550.43" stroke="rgba(255, 204, 78, 0.53)" stroke-width="1.5"></path><path d="M366.79 387.72L542.12 549.48" stroke="rgba(255, 204, 78, 0.53)" stroke-width="1.5"></path><path d="M396.94 550.43L396.94 550.43" stroke="rgba(255, 204, 78, 0.53)" stroke-width="1.5"></path><path d="M396.94 550.43L542.12 549.48" stroke="rgba(255, 204, 78, 0.53)" stroke-width="1.5"></path><path d="M396.94 550.43L528.57 653.49" stroke="rgba(255, 204, 78, 0.53)" stroke-width="1.5"></path><path d="M396.94 550.43L493.52 369.53" stroke="rgba(255, 204, 78, 0.53)" stroke-width="1.5"></path><path d="M493.52 369.53L493.52 369.53" stroke="rgba(255, 204, 78, 0.53)" stroke-width="1.5"></path><path d="M493.52 369.53L542.12 549.48" stroke="rgba(255, 204, 78, 0.53)" stroke-width="1.5"></path><path d="M493.52 369.53L696.4 391.88" stroke="rgba(255, 204, 78, 0.53)" stroke-width="1.5"></path><path d="M542.12 549.48L542.12 549.48" stroke="rgba(255, 204, 78, 0.53)" stroke-width="1.5"></path><path d="M542.12 549.48L528.57 653.49" stroke="rgba(255, 204, 78, 0.53)" stroke-width="1.5"></path><path d="M542.12 549.48L685.7 514.38" stroke="rgba(255, 204, 78, 0.53)" stroke-width="1.5"></path><path d="M542.12 549.48L681.75 698.92" stroke="rgba(255, 204, 78, 0.53)" stroke-width="1.5"></path><path d="M542.12 549.48L696.4 391.88" stroke="rgba(255, 204, 78, 0.53)" stroke-width="1.5"></path><path d="M528.57 653.49L528.57 653.49" stroke="rgba(255, 204, 78, 0.53)" stroke-width="1.5"></path><path d="M528.57 653.49L681.75 698.92" stroke="rgba(255, 204, 78, 0.53)" stroke-width="1.5"></path><path d="M696.4 391.88L696.4 391.88" stroke="rgba(255, 204, 78, 0.53)" stroke-width="1.5"></path><path d="M696.4 391.88L796.49 375.06" stroke="rgba(255, 204, 78, 0.53)" stroke-width="1.5"></path><path d="M696.4 391.88L685.7 514.38" stroke="rgba(255, 204, 78, 0.53)" stroke-width="1.5"></path><path d="M685.7 514.38L685.7 514.38" stroke="rgba(255, 204, 78, 0.53)" stroke-width="1.5"></path><path d="M685.7 514.38L818.7 539.18" stroke="rgba(255, 204, 78, 0.53)" stroke-width="1.5"></path><path d="M681.75 698.92L681.75 698.92" stroke="rgba(255, 204, 78, 0.53)" stroke-width="1.5"></path><path d="M681.75 698.92L806.09 710.68" stroke="rgba(255, 204, 78, 0.53)" stroke-width="1.5"></path><path d="M681.75 698.92L685.7 514.38" stroke="rgba(255, 204, 78, 0.53)" stroke-width="1.5"></path><path d="M831.29 214.14L831.29 214.14" stroke="rgba(255, 204, 78, 0.53)" stroke-width="1.5"></path><path d="M831.29 214.14L942.32 204.68" stroke="rgba(255, 204, 78, 0.53)" stroke-width="1.5"></path><path d="M831.29 214.14L796.49 375.06" stroke="rgba(255, 204, 78, 0.53)" stroke-width="1.5"></path><path d="M831.29 214.14L987.66 85.61" stroke="rgba(255, 204, 78, 0.53)" stroke-width="1.5"></path><path d="M831.29 214.14L979.15 379.93" stroke="rgba(255, 204, 78, 0.53)" stroke-width="1.5"></path><path d="M831.29 214.14L696.4 391.88" stroke="rgba(255, 204, 78, 0.53)" stroke-width="1.5"></path><path d="M796.49 375.06L796.49 375.06" stroke="rgba(255, 204, 78, 0.53)" stroke-width="1.5"></path><path d="M796.49 375.06L818.7 539.18" stroke="rgba(255, 204, 78, 0.53)" stroke-width="1.5"></path><path d="M818.7 539.18L818.7 539.18" stroke="rgba(255, 204, 78, 0.53)" stroke-width="1.5"></path><path d="M818.7 539.18L988.5 530.83" stroke="rgba(255, 204, 78, 0.53)" stroke-width="1.5"></path><path d="M818.7 539.18L806.09 710.68" stroke="rgba(255, 204, 78, 0.53)" stroke-width="1.5"></path><path d="M806.09 710.68L806.09 710.68" stroke="rgba(255, 204, 78, 0.53)" stroke-width="1.5"></path><path d="M806.09 710.68L966.9 659.39" stroke="rgba(255, 204, 78, 0.53)" stroke-width="1.5"></path><path d="M806.09 710.68L685.7 514.38" stroke="rgba(255, 204, 78, 0.53)" stroke-width="1.5"></path><path d="M806.09 710.68L988.5 530.83" stroke="rgba(255, 204, 78, 0.53)" stroke-width="1.5"></path><path d="M946.21 -94.63L946.21 -94.63" stroke="rgba(255, 204, 78, 0.53)" stroke-width="1.5"></path><path d="M946.21 -94.63L1117.32 -106.76" stroke="rgba(255, 204, 78, 0.53)" stroke-width="1.5"></path><path d="M946.21 -94.63L987.66 85.61" stroke="rgba(255, 204, 78, 0.53)" stroke-width="1.5"></path><path d="M946.21 -94.63L1137.12 82.22" stroke="rgba(255, 204, 78, 0.53)" stroke-width="1.5"></path><path d="M946.21 -94.63L942.32 204.68" stroke="rgba(255, 204, 78, 0.53)" stroke-width="1.5"></path><path d="M946.21 -94.63L831.29 214.14" stroke="rgba(255, 204, 78, 0.53)" stroke-width="1.5"></path><path d="M946.21 -94.63L1243.03 53.6" stroke="rgba(255, 204, 78, 0.53)" stroke-width="1.5"></path><path d="M987.66 85.61L987.66 85.61" stroke="rgba(255, 204, 78, 0.53)" stroke-width="1.5"></path><path d="M987.66 85.61L942.32 204.68" stroke="rgba(255, 204, 78, 0.53)" stroke-width="1.5"></path><path d="M987.66 85.61L1137.12 82.22" stroke="rgba(255, 204, 78, 0.53)" stroke-width="1.5"></path><path d="M942.32 204.68L942.32 204.68" stroke="rgba(255, 204, 78, 0.53)" stroke-width="1.5"></path><path d="M942.32 204.68L979.15 379.93" stroke="rgba(255, 204, 78, 0.53)" stroke-width="1.5"></path><path d="M942.32 204.68L1144.64 227.85" stroke="rgba(255, 204, 78, 0.53)" stroke-width="1.5"></path><path d="M942.32 204.68L796.49 375.06" stroke="rgba(255, 204, 78, 0.53)" stroke-width="1.5"></path><path d="M979.15 379.93L979.15 379.93" stroke="rgba(255, 204, 78, 0.53)" stroke-width="1.5"></path><path d="M979.15 379.93L1107.19 385.43" stroke="rgba(255, 204, 78, 0.53)" stroke-width="1.5"></path><path d="M979.15 379.93L988.5 530.83" stroke="rgba(255, 204, 78, 0.53)" stroke-width="1.5"></path><path d="M988.5 530.83L988.5 530.83" stroke="rgba(255, 204, 78, 0.53)" stroke-width="1.5"></path><path d="M988.5 530.83L966.9 659.39" stroke="rgba(255, 204, 78, 0.53)" stroke-width="1.5"></path><path d="M988.5 530.83L1150.78 515.07" stroke="rgba(255, 204, 78, 0.53)" stroke-width="1.5"></path><path d="M966.9 659.39L966.9 659.39" stroke="rgba(255, 204, 78, 0.53)" stroke-width="1.5"></path><path d="M966.9 659.39L1115.34 648.17" stroke="rgba(255, 204, 78, 0.53)" stroke-width="1.5"></path><path d="M966.9 659.39L818.7 539.18" stroke="rgba(255, 204, 78, 0.53)" stroke-width="1.5"></path><path d="M1117.32 -106.76L1117.32 -106.76" stroke="rgba(255, 204, 78, 0.53)" stroke-width="1.5"></path><path d="M1117.32 -106.76L1291.07 -73.31" stroke="rgba(255, 204, 78, 0.53)" stroke-width="1.5"></path><path d="M1117.32 -106.76L1137.12 82.22" stroke="rgba(255, 204, 78, 0.53)" stroke-width="1.5"></path><path d="M1117.32 -106.76L1243.03 53.6" stroke="rgba(255, 204, 78, 0.53)" stroke-width="1.5"></path><path d="M1117.32 -106.76L987.66 85.61" stroke="rgba(255, 204, 78, 0.53)" stroke-width="1.5"></path><path d="M1137.12 82.22L1137.12 82.22" stroke="rgba(255, 204, 78, 0.53)" stroke-width="1.5"></path><path d="M1137.12 82.22L1243.03 53.6" stroke="rgba(255, 204, 78, 0.53)" stroke-width="1.5"></path><path d="M1137.12 82.22L1144.64 227.85" stroke="rgba(255, 204, 78, 0.53)" stroke-width="1.5"></path><path d="M1144.64 227.85L1144.64 227.85" stroke="rgba(255, 204, 78, 0.53)" stroke-width="1.5"></path><path d="M1144.64 227.85L1107.19 385.43" stroke="rgba(255, 204, 78, 0.53)" stroke-width="1.5"></path><path d="M1144.64 227.85L1308.72 245.1" stroke="rgba(255, 204, 78, 0.53)" stroke-width="1.5"></path><path d="M1144.64 227.85L1243.03 53.6" stroke="rgba(255, 204, 78, 0.53)" stroke-width="1.5"></path><path d="M1107.19 385.43L1107.19 385.43" stroke="rgba(255, 204, 78, 0.53)" stroke-width="1.5"></path><path d="M1107.19 385.43L1150.78 515.07" stroke="rgba(255, 204, 78, 0.53)" stroke-width="1.5"></path><path d="M1150.78 515.07L1150.78 515.07" stroke="rgba(255, 204, 78, 0.53)" stroke-width="1.5"></path><path d="M1150.78 515.07L1115.34 648.17" stroke="rgba(255, 204, 78, 0.53)" stroke-width="1.5"></path><path d="M1115.34 648.17L1115.34 648.17" stroke="rgba(255, 204, 78, 0.53)" stroke-width="1.5"></path><path d="M1115.34 648.17L1246.31 643.26" stroke="rgba(255, 204, 78, 0.53)" stroke-width="1.5"></path><path d="M1115.34 648.17L988.5 530.83" stroke="rgba(255, 204, 78, 0.53)" stroke-width="1.5"></path><path d="M1115.34 648.17L1289.64 500.45" stroke="rgba(255, 204, 78, 0.53)" stroke-width="1.5"></path><path d="M1291.07 -73.31L1291.07 -73.31" stroke="rgba(255, 204, 78, 0.53)" stroke-width="1.5"></path><path d="M1291.07 -73.31L1243.03 53.6" stroke="rgba(255, 204, 78, 0.53)" stroke-width="1.5"></path><path d="M1291.07 -73.31L1445.26 -101.29" stroke="rgba(255, 204, 78, 0.53)" stroke-width="1.5"></path><path d="M1243.03 53.6L1243.03 53.6" stroke="rgba(255, 204, 78, 0.53)" stroke-width="1.5"></path><path d="M1308.72 245.1L1308.72 245.1" stroke="rgba(255, 204, 78, 0.53)" stroke-width="1.5"></path><path d="M1308.72 245.1L1395.34 205.5" stroke="rgba(255, 204, 78, 0.53)" stroke-width="1.5"></path><path d="M1308.72 245.1L1299.44 407.61" stroke="rgba(255, 204, 78, 0.53)" stroke-width="1.5"></path><path d="M1299.44 407.61L1299.44 407.61" stroke="rgba(255, 204, 78, 0.53)" stroke-width="1.5"></path><path d="M1299.44 407.61L1289.64 500.45" stroke="rgba(255, 204, 78, 0.53)" stroke-width="1.5"></path><path d="M1299.44 407.61L1428.07 379.52" stroke="rgba(255, 204, 78, 0.53)" stroke-width="1.5"></path><path d="M1299.44 407.61L1425.93 529.01" stroke="rgba(255, 204, 78, 0.53)" stroke-width="1.5"></path><path d="M1289.64 500.45L1289.64 500.45" stroke="rgba(255, 204, 78, 0.53)" stroke-width="1.5"></path><path d="M1289.64 500.45L1425.93 529.01" stroke="rgba(255, 204, 78, 0.53)" stroke-width="1.5"></path><path d="M1289.64 500.45L1150.78 515.07" stroke="rgba(255, 204, 78, 0.53)" stroke-width="1.5"></path><path d="M1289.64 500.45L1246.31 643.26" stroke="rgba(255, 204, 78, 0.53)" stroke-width="1.5"></path><path d="M1289.64 500.45L1428.07 379.52" stroke="rgba(255, 204, 78, 0.53)" stroke-width="1.5"></path><path d="M1246.31 643.26L1246.31 643.26" stroke="rgba(255, 204, 78, 0.53)" stroke-width="1.5"></path><path d="M1445.26 -101.29L1445.26 -101.29" stroke="rgba(255, 204, 78, 0.53)" stroke-width="1.5"></path><path d="M1445.26 -101.29L1571.84 -70.63" stroke="rgba(255, 204, 78, 0.53)" stroke-width="1.5"></path><path d="M1445.26 -101.29L1586.41 102.14" stroke="rgba(255, 204, 78, 0.53)" stroke-width="1.5"></path><path d="M1445.26 -101.29L1243.03 53.6" stroke="rgba(255, 204, 78, 0.53)" stroke-width="1.5"></path><path d="M1445.26 -101.29L1395.34 205.5" stroke="rgba(255, 204, 78, 0.53)" stroke-width="1.5"></path><path d="M1445.26 -101.29L1117.32 -106.76" stroke="rgba(255, 204, 78, 0.53)" stroke-width="1.5"></path><path d="M1395.34 205.5L1395.34 205.5" stroke="rgba(255, 204, 78, 0.53)" stroke-width="1.5"></path><path d="M1395.34 205.5L1428.07 379.52" stroke="rgba(255, 204, 78, 0.53)" stroke-width="1.5"></path><path d="M1395.34 205.5L1584.64 235.88" stroke="rgba(255, 204, 78, 0.53)" stroke-width="1.5"></path><path d="M1428.07 379.52L1428.07 379.52" stroke="rgba(255, 204, 78, 0.53)" stroke-width="1.5"></path><path d="M1428.07 379.52L1425.93 529.01" stroke="rgba(255, 204, 78, 0.53)" stroke-width="1.5"></path><path d="M1428.07 379.52L1593.06 358.4" stroke="rgba(255, 204, 78, 0.53)" stroke-width="1.5"></path><path d="M1425.93 529.01L1425.93 529.01" stroke="rgba(255, 204, 78, 0.53)" stroke-width="1.5"></path><path d="M1425.93 529.01L1606.86 534.82" stroke="rgba(255, 204, 78, 0.53)" stroke-width="1.5"></path><path d="M1571.84 -70.63L1571.84 -70.63" stroke="rgba(255, 204, 78, 0.53)" stroke-width="1.5"></path><path d="M1571.84 -70.63L1586.41 102.14" stroke="rgba(255, 204, 78, 0.53)" stroke-width="1.5"></path><path d="M1571.84 -70.63L1291.07 -73.31" stroke="rgba(255, 204, 78, 0.53)" stroke-width="1.5"></path><path d="M1571.84 -70.63L1584.64 235.88" stroke="rgba(255, 204, 78, 0.53)" stroke-width="1.5"></path><path d="M1586.41 102.14L1586.41 102.14" stroke="rgba(255, 204, 78, 0.53)" stroke-width="1.5"></path><path d="M1586.41 102.14L1584.64 235.88" stroke="rgba(255, 204, 78, 0.53)" stroke-width="1.5"></path><path d="M1586.41 102.14L1395.34 205.5" stroke="rgba(255, 204, 78, 0.53)" stroke-width="1.5"></path><path d="M1586.41 102.14L1593.06 358.4" stroke="rgba(255, 204, 78, 0.53)" stroke-width="1.5"></path><path d="M1584.64 235.88L1584.64 235.88" stroke="rgba(255, 204, 78, 0.53)" stroke-width="1.5"></path><path d="M1584.64 235.88L1593.06 358.4" stroke="rgba(255, 204, 78, 0.53)" stroke-width="1.5"></path><path d="M1584.64 235.88L1428.07 379.52" stroke="rgba(255, 204, 78, 0.53)" stroke-width="1.5"></path><path d="M1593.06 358.4L1593.06 358.4" stroke="rgba(255, 204, 78, 0.53)" stroke-width="1.5"></path><path d="M1593.06 358.4L1606.86 534.82" stroke="rgba(255, 204, 78, 0.53)" stroke-width="1.5"></path><path d="M1593.06 358.4L1425.93 529.01" stroke="rgba(255, 204, 78, 0.53)" stroke-width="1.5"></path><path d="M1593.06 358.4L1395.34 205.5" stroke="rgba(255, 204, 78, 0.53)" stroke-width="1.5"></path><path d="M1606.86 534.82L1606.86 534.82" stroke="rgba(255, 204, 78, 0.53)" stroke-width="1.5"></path><path d="M1606.86 534.82L1580.03 693.07" stroke="rgba(255, 204, 78, 0.53)" stroke-width="1.5"></path><path d="M1606.86 534.82L1428.07 379.52" stroke="rgba(255, 204, 78, 0.53)" stroke-width="1.5"></path><path d="M1580.03 693.07L1580.03 693.07" stroke="rgba(255, 204, 78, 0.53)" stroke-width="1.5"></path><path d="M1580.03 693.07L1425.93 529.01" stroke="rgba(255, 204, 78, 0.53)" stroke-width="1.5"></path><path d="M1580.03 693.07L1593.06 358.4" stroke="rgba(255, 204, 78, 0.53)" stroke-width="1.5"></path><path d="M1580.03 693.07L1246.31 643.26" stroke="rgba(255, 204, 78, 0.53)" stroke-width="1.5"></path><path d="M1580.03 693.07L1428.07 379.52" stroke="rgba(255, 204, 78, 0.53)" stroke-width="1.5"></path><circle r="5" cx="-104.81" cy="554.38" fill="rgba(255, 204, 78, 0.53)"></circle><circle r="5" cx="-68.5" cy="671.56" fill="rgba(255, 204, 78, 0.53)"></circle><circle r="5" cx="74.45" cy="360.17" fill="rgba(255, 204, 78, 0.53)"></circle><circle r="5" cx="103.35" cy="537.8" fill="rgba(255, 204, 78, 0.53)"></circle><circle r="5" cx="89.28" cy="637.69" fill="rgba(255, 204, 78, 0.53)"></circle><circle r="5" cx="192.67" cy="355.06" fill="rgba(255, 204, 78, 0.53)"></circle><circle r="5" cx="236.28" cy="645.77" fill="rgba(255, 204, 78, 0.53)"></circle><circle r="5" cx="366.79" cy="387.72" fill="rgba(255, 204, 78, 0.53)"></circle><circle r="5" cx="396.94" cy="550.43" fill="rgba(255, 204, 78, 0.53)"></circle><circle r="5" cx="493.52" cy="369.53" fill="rgba(255, 204, 78, 0.53)"></circle><circle r="5" cx="542.12" cy="549.48" fill="rgba(255, 204, 78, 0.53)"></circle><circle r="5" cx="528.57" cy="653.49" fill="rgba(255, 204, 78, 0.53)"></circle><circle r="5" cx="696.4" cy="391.88" fill="rgba(255, 204, 78, 0.53)"></circle><circle r="5" cx="685.7" cy="514.38" fill="rgba(255, 204, 78, 0.53)"></circle><circle r="5" cx="681.75" cy="698.92" fill="rgba(255, 204, 78, 0.53)"></circle><circle r="5" cx="831.29" cy="214.14" fill="rgba(255, 204, 78, 0.53)"></circle><circle r="5" cx="796.49" cy="375.06" fill="rgba(255, 204, 78, 0.53)"></circle><circle r="5" cx="818.7" cy="539.18" fill="rgba(255, 204, 78, 0.53)"></circle><circle r="5" cx="806.09" cy="710.68" fill="rgba(255, 204, 78, 0.53)"></circle><circle r="5" cx="946.21" cy="-94.63" fill="rgba(255, 204, 78, 0.53)"></circle><circle r="5" cx="987.66" cy="85.61" fill="rgba(255, 204, 78, 0.53)"></circle><circle r="5" cx="942.32" cy="204.68" fill="rgba(255, 204, 78, 0.53)"></circle><circle r="5" cx="979.15" cy="379.93" fill="rgba(255, 204, 78, 0.53)"></circle><circle r="5" cx="988.5" cy="530.83" fill="rgba(255, 204, 78, 0.53)"></circle><circle r="5" cx="966.9" cy="659.39" fill="rgba(255, 204, 78, 0.53)"></circle><circle r="5" cx="1117.32" cy="-106.76" fill="rgba(255, 204, 78, 0.53)"></circle><circle r="5" cx="1137.12" cy="82.22" fill="rgba(255, 204, 78, 0.53)"></circle><circle r="5" cx="1144.64" cy="227.85" fill="rgba(255, 204, 78, 0.53)"></circle><circle r="5" cx="1107.19" cy="385.43" fill="rgba(255, 204, 78, 0.53)"></circle><circle r="5" cx="1150.78" cy="515.07" fill="rgba(255, 204, 78, 0.53)"></circle><circle r="5" cx="1115.34" cy="648.17" fill="rgba(255, 204, 78, 0.53)"></circle><circle r="5" cx="1291.07" cy="-73.31" fill="rgba(255, 204, 78, 0.53)"></circle><circle r="5" cx="1243.03" cy="53.6" fill="rgba(255, 204, 78, 0.53)"></circle><circle r="5" cx="1308.72" cy="245.1" fill="rgba(255, 204, 78, 0.53)"></circle><circle r="5" cx="1299.44" cy="407.61" fill="rgba(255, 204, 78, 0.53)"></circle><circle r="5" cx="1289.64" cy="500.45" fill="rgba(255, 204, 78, 0.53)"></circle><circle r="5" cx="1246.31" cy="643.26" fill="rgba(255, 204, 78, 0.53)"></circle><circle r="5" cx="1445.26" cy="-101.29" fill="rgba(255, 204, 78, 0.53)"></circle><circle r="5" cx="1395.34" cy="205.5" fill="rgba(255, 204, 78, 0.53)"></circle><circle r="5" cx="1428.07" cy="379.52" fill="rgba(255, 204, 78, 0.53)"></circle><circle r="5" cx="1425.93" cy="529.01" fill="rgba(255, 204, 78, 0.53)"></circle><circle r="5" cx="1571.84" cy="-70.63" fill="rgba(255, 204, 78, 0.53)"></circle><circle r="5" cx="1586.41" cy="102.14" fill="rgba(255, 204, 78, 0.53)"></circle><circle r="5" cx="1584.64" cy="235.88" fill="rgba(255, 204, 78, 0.53)"></circle><circle r="5" cx="1593.06" cy="358.4" fill="rgba(255, 204, 78, 0.53)"></circle><circle r="5" cx="1606.86" cy="534.82" fill="rgba(255, 204, 78, 0.53)"></circle><circle r="5" cx="1580.03" cy="693.07" fill="rgba(255, 204, 78, 0.53)"></circle><path d="M1115.35 560.26L1115.35 560.26" stroke="hsla(42.69999999999999, 100%, 84.9%, 0.18)" stroke-width="1.5"></path><path d="M1115.35 560.26L1135.91 651.3" stroke="hsla(42.69999999999999, 100%, 84.9%, 0.18)" stroke-width="1.5"></path><path d="M1115.35 560.26L1270.57 498.57" stroke="hsla(42.69999999999999, 100%, 84.9%, 0.18)" stroke-width="1.5"></path><path d="M1452.99 -111.96L1452.99 -111.96" stroke="hsla(42.69999999999999, 100%, 84.9%, 0.18)" stroke-width="1.5"></path><path d="M1452.99 -111.96L1400.19 52.95" stroke="hsla(42.69999999999999, 100%, 84.9%, 0.18)" stroke-width="1.5"></path><path d="M1452.99 -111.96L1274.71 -41.9" stroke="hsla(42.69999999999999, 100%, 84.9%, 0.18)" stroke-width="1.5"></path><path d="M1452.99 -111.96L1569.39 66.97" stroke="hsla(42.69999999999999, 100%, 84.9%, 0.18)" stroke-width="1.5"></path><path d="M1452.99 -111.96L1251.15 81.63" stroke="hsla(42.69999999999999, 100%, 84.9%, 0.18)" stroke-width="1.5"></path><path d="M1452.99 -111.96L1429.15 223.57" stroke="hsla(42.69999999999999, 100%, 84.9%, 0.18)" stroke-width="1.5"></path><path d="M1409.61 522.84L1409.61 522.84" stroke="hsla(42.69999999999999, 100%, 84.9%, 0.18)" stroke-width="1.5"></path><path d="M1409.61 522.84L1270.57 498.57" stroke="hsla(42.69999999999999, 100%, 84.9%, 0.18)" stroke-width="1.5"></path><path d="M1409.61 522.84L1401.56 345.31" stroke="hsla(42.69999999999999, 100%, 84.9%, 0.18)" stroke-width="1.5"></path><path d="M1409.61 522.84L1407.31 703.71" stroke="hsla(42.69999999999999, 100%, 84.9%, 0.18)" stroke-width="1.5"></path><path d="M1407.31 703.71L1407.31 703.71" stroke="hsla(42.69999999999999, 100%, 84.9%, 0.18)" stroke-width="1.5"></path><path d="M1407.31 703.71L1257.8 688.85" stroke="hsla(42.69999999999999, 100%, 84.9%, 0.18)" stroke-width="1.5"></path><path d="M1407.31 703.71L1600.73 674.84" stroke="hsla(42.69999999999999, 100%, 84.9%, 0.18)" stroke-width="1.5"></path><path d="M-54.55 554.69L-54.55 554.69" stroke="hsla(42.69999999999999, 100%, 84.9%, 0.18)" stroke-width="1.5"></path><path d="M-54.55 554.69L68.92 557.57" stroke="hsla(42.69999999999999, 100%, 84.9%, 0.18)" stroke-width="1.5"></path><path d="M-54.55 554.69L-107.38 694.06" stroke="hsla(42.69999999999999, 100%, 84.9%, 0.18)" stroke-width="1.5"></path><path d="M-107.38 694.06L-107.38 694.06" stroke="hsla(42.69999999999999, 100%, 84.9%, 0.18)" stroke-width="1.5"></path><path d="M-107.38 694.06L87.7 707.01" stroke="hsla(42.69999999999999, 100%, 84.9%, 0.18)" stroke-width="1.5"></path><path d="M68.92 557.57L68.92 557.57" stroke="hsla(42.69999999999999, 100%, 84.9%, 0.18)" stroke-width="1.5"></path><path d="M68.92 557.57L87.7 707.01" stroke="hsla(42.69999999999999, 100%, 84.9%, 0.18)" stroke-width="1.5"></path><path d="M68.92 557.57L223.22 510.89" stroke="hsla(42.69999999999999, 100%, 84.9%, 0.18)" stroke-width="1.5"></path><path d="M68.92 557.57L-107.38 694.06" stroke="hsla(42.69999999999999, 100%, 84.9%, 0.18)" stroke-width="1.5"></path><path d="M68.92 557.57L260.99 681.42" stroke="hsla(42.69999999999999, 100%, 84.9%, 0.18)" stroke-width="1.5"></path><path d="M68.92 557.57L391.43 517.89" stroke="hsla(42.69999999999999, 100%, 84.9%, 0.18)" stroke-width="1.5"></path><path d="M87.7 707.01L87.7 707.01" stroke="hsla(42.69999999999999, 100%, 84.9%, 0.18)" stroke-width="1.5"></path><path d="M87.7 707.01L260.99 681.42" stroke="hsla(42.69999999999999, 100%, 84.9%, 0.18)" stroke-width="1.5"></path><path d="M87.7 707.01L-54.55 554.69" stroke="hsla(42.69999999999999, 100%, 84.9%, 0.18)" stroke-width="1.5"></path><path d="M223.22 510.89L223.22 510.89" stroke="hsla(42.69999999999999, 100%, 84.9%, 0.18)" stroke-width="1.5"></path><path d="M223.22 510.89L391.43 517.89" stroke="hsla(42.69999999999999, 100%, 84.9%, 0.18)" stroke-width="1.5"></path><path d="M223.22 510.89L260.99 681.42" stroke="hsla(42.69999999999999, 100%, 84.9%, 0.18)" stroke-width="1.5"></path><path d="M260.99 681.42L260.99 681.42" stroke="hsla(42.69999999999999, 100%, 84.9%, 0.18)" stroke-width="1.5"></path><path d="M260.99 681.42L373.8 707.57" stroke="hsla(42.69999999999999, 100%, 84.9%, 0.18)" stroke-width="1.5"></path><path d="M260.99 681.42L391.43 517.89" stroke="hsla(42.69999999999999, 100%, 84.9%, 0.18)" stroke-width="1.5"></path><path d="M391.43 517.89L391.43 517.89" stroke="hsla(42.69999999999999, 100%, 84.9%, 0.18)" stroke-width="1.5"></path><path d="M391.43 517.89L525.61 514.88" stroke="hsla(42.69999999999999, 100%, 84.9%, 0.18)" stroke-width="1.5"></path><path d="M373.8 707.57L373.8 707.57" stroke="hsla(42.69999999999999, 100%, 84.9%, 0.18)" stroke-width="1.5"></path><path d="M525.61 514.88L525.61 514.88" stroke="hsla(42.69999999999999, 100%, 84.9%, 0.18)" stroke-width="1.5"></path><path d="M525.61 514.88L639.24 555.81" stroke="hsla(42.69999999999999, 100%, 84.9%, 0.18)" stroke-width="1.5"></path><path d="M525.61 514.88L548.94 687.16" stroke="hsla(42.69999999999999, 100%, 84.9%, 0.18)" stroke-width="1.5"></path><path d="M525.61 514.88L651.71 667.82" stroke="hsla(42.69999999999999, 100%, 84.9%, 0.18)" stroke-width="1.5"></path><path d="M525.61 514.88L373.8 707.57" stroke="hsla(42.69999999999999, 100%, 84.9%, 0.18)" stroke-width="1.5"></path><path d="M525.61 514.88L798.27 405.62" stroke="hsla(42.69999999999999, 100%, 84.9%, 0.18)" stroke-width="1.5"></path><path d="M548.94 687.16L548.94 687.16" stroke="hsla(42.69999999999999, 100%, 84.9%, 0.18)" stroke-width="1.5"></path><path d="M548.94 687.16L651.71 667.82" stroke="hsla(42.69999999999999, 100%, 84.9%, 0.18)" stroke-width="1.5"></path><path d="M548.94 687.16L639.24 555.81" stroke="hsla(42.69999999999999, 100%, 84.9%, 0.18)" stroke-width="1.5"></path><path d="M548.94 687.16L373.8 707.57" stroke="hsla(42.69999999999999, 100%, 84.9%, 0.18)" stroke-width="1.5"></path><path d="M639.24 555.81L639.24 555.81" stroke="hsla(42.69999999999999, 100%, 84.9%, 0.18)" stroke-width="1.5"></path><path d="M639.24 555.81L651.71 667.82" stroke="hsla(42.69999999999999, 100%, 84.9%, 0.18)" stroke-width="1.5"></path><path d="M639.24 555.81L840.09 532.18" stroke="hsla(42.69999999999999, 100%, 84.9%, 0.18)" stroke-width="1.5"></path><path d="M651.71 667.82L651.71 667.82" stroke="hsla(42.69999999999999, 100%, 84.9%, 0.18)" stroke-width="1.5"></path><path d="M651.71 667.82L824.6 682.13" stroke="hsla(42.69999999999999, 100%, 84.9%, 0.18)" stroke-width="1.5"></path><path d="M651.71 667.82L840.09 532.18" stroke="hsla(42.69999999999999, 100%, 84.9%, 0.18)" stroke-width="1.5"></path><path d="M651.71 667.82L373.8 707.57" stroke="hsla(42.69999999999999, 100%, 84.9%, 0.18)" stroke-width="1.5"></path><path d="M798.27 405.62L798.27 405.62" stroke="hsla(42.69999999999999, 100%, 84.9%, 0.18)" stroke-width="1.5"></path><path d="M798.27 405.62L840.09 532.18" stroke="hsla(42.69999999999999, 100%, 84.9%, 0.18)" stroke-width="1.5"></path><path d="M798.27 405.62L1002.1 401.37" stroke="hsla(42.69999999999999, 100%, 84.9%, 0.18)" stroke-width="1.5"></path><path d="M840.09 532.18L840.09 532.18" stroke="hsla(42.69999999999999, 100%, 84.9%, 0.18)" stroke-width="1.5"></path><path d="M840.09 532.18L944.89 547.82" stroke="hsla(42.69999999999999, 100%, 84.9%, 0.18)" stroke-width="1.5"></path><path d="M824.6 682.13L824.6 682.13" stroke="hsla(42.69999999999999, 100%, 84.9%, 0.18)" stroke-width="1.5"></path><path d="M824.6 682.13L840.09 532.18" stroke="hsla(42.69999999999999, 100%, 84.9%, 0.18)" stroke-width="1.5"></path><path d="M824.6 682.13L979.45 659.3" stroke="hsla(42.69999999999999, 100%, 84.9%, 0.18)" stroke-width="1.5"></path><path d="M824.6 682.13L944.89 547.82" stroke="hsla(42.69999999999999, 100%, 84.9%, 0.18)" stroke-width="1.5"></path><path d="M1002.1 401.37L1002.1 401.37" stroke="hsla(42.69999999999999, 100%, 84.9%, 0.18)" stroke-width="1.5"></path><path d="M1002.1 401.37L1141.15 357.4" stroke="hsla(42.69999999999999, 100%, 84.9%, 0.18)" stroke-width="1.5"></path><path d="M1002.1 401.37L944.89 547.82" stroke="hsla(42.69999999999999, 100%, 84.9%, 0.18)" stroke-width="1.5"></path><path d="M1002.1 401.37L1115.35 560.26" stroke="hsla(42.69999999999999, 100%, 84.9%, 0.18)" stroke-width="1.5"></path><path d="M944.89 547.82L944.89 547.82" stroke="hsla(42.69999999999999, 100%, 84.9%, 0.18)" stroke-width="1.5"></path><path d="M944.89 547.82L979.45 659.3" stroke="hsla(42.69999999999999, 100%, 84.9%, 0.18)" stroke-width="1.5"></path><path d="M944.89 547.82L1115.35 560.26" stroke="hsla(42.69999999999999, 100%, 84.9%, 0.18)" stroke-width="1.5"></path><path d="M979.45 659.3L979.45 659.3" stroke="hsla(42.69999999999999, 100%, 84.9%, 0.18)" stroke-width="1.5"></path><path d="M1147.03 77.58L1147.03 77.58" stroke="hsla(42.69999999999999, 100%, 84.9%, 0.18)" stroke-width="1.5"></path><path d="M1147.03 77.58L1251.15 81.63" stroke="hsla(42.69999999999999, 100%, 84.9%, 0.18)" stroke-width="1.5"></path><path d="M1147.03 77.58L1100.02 202.98" stroke="hsla(42.69999999999999, 100%, 84.9%, 0.18)" stroke-width="1.5"></path><path d="M1100.02 202.98L1100.02 202.98" stroke="hsla(42.69999999999999, 100%, 84.9%, 0.18)" stroke-width="1.5"></path><path d="M1100.02 202.98L1141.15 357.4" stroke="hsla(42.69999999999999, 100%, 84.9%, 0.18)" stroke-width="1.5"></path><path d="M1100.02 202.98L1252.11 259.38" stroke="hsla(42.69999999999999, 100%, 84.9%, 0.18)" stroke-width="1.5"></path><path d="M1100.02 202.98L1251.15 81.63" stroke="hsla(42.69999999999999, 100%, 84.9%, 0.18)" stroke-width="1.5"></path><path d="M1141.15 357.4L1141.15 357.4" stroke="hsla(42.69999999999999, 100%, 84.9%, 0.18)" stroke-width="1.5"></path><path d="M1141.15 357.4L1269.85 344.19" stroke="hsla(42.69999999999999, 100%, 84.9%, 0.18)" stroke-width="1.5"></path><path d="M1135.91 651.3L1135.91 651.3" stroke="hsla(42.69999999999999, 100%, 84.9%, 0.18)" stroke-width="1.5"></path><path d="M1135.91 651.3L1257.8 688.85" stroke="hsla(42.69999999999999, 100%, 84.9%, 0.18)" stroke-width="1.5"></path><path d="M1135.91 651.3L979.45 659.3" stroke="hsla(42.69999999999999, 100%, 84.9%, 0.18)" stroke-width="1.5"></path><path d="M1135.91 651.3L1270.57 498.57" stroke="hsla(42.69999999999999, 100%, 84.9%, 0.18)" stroke-width="1.5"></path><path d="M1274.71 -41.9L1274.71 -41.9" stroke="hsla(42.69999999999999, 100%, 84.9%, 0.18)" stroke-width="1.5"></path><path d="M1274.71 -41.9L1251.15 81.63" stroke="hsla(42.69999999999999, 100%, 84.9%, 0.18)" stroke-width="1.5"></path><path d="M1274.71 -41.9L1400.19 52.95" stroke="hsla(42.69999999999999, 100%, 84.9%, 0.18)" stroke-width="1.5"></path><path d="M1274.71 -41.9L1147.03 77.58" stroke="hsla(42.69999999999999, 100%, 84.9%, 0.18)" stroke-width="1.5"></path><path d="M1274.71 -41.9L1100.02 202.98" stroke="hsla(42.69999999999999, 100%, 84.9%, 0.18)" stroke-width="1.5"></path><path d="M1274.71 -41.9L1252.11 259.38" stroke="hsla(42.69999999999999, 100%, 84.9%, 0.18)" stroke-width="1.5"></path><path d="M1251.15 81.63L1251.15 81.63" stroke="hsla(42.69999999999999, 100%, 84.9%, 0.18)" stroke-width="1.5"></path><path d="M1251.15 81.63L1400.19 52.95" stroke="hsla(42.69999999999999, 100%, 84.9%, 0.18)" stroke-width="1.5"></path><path d="M1251.15 81.63L1252.11 259.38" stroke="hsla(42.69999999999999, 100%, 84.9%, 0.18)" stroke-width="1.5"></path><path d="M1251.15 81.63L1429.15 223.57" stroke="hsla(42.69999999999999, 100%, 84.9%, 0.18)" stroke-width="1.5"></path><path d="M1252.11 259.38L1252.11 259.38" stroke="hsla(42.69999999999999, 100%, 84.9%, 0.18)" stroke-width="1.5"></path><path d="M1252.11 259.38L1269.85 344.19" stroke="hsla(42.69999999999999, 100%, 84.9%, 0.18)" stroke-width="1.5"></path><path d="M1252.11 259.38L1141.15 357.4" stroke="hsla(42.69999999999999, 100%, 84.9%, 0.18)" stroke-width="1.5"></path><path d="M1252.11 259.38L1401.56 345.31" stroke="hsla(42.69999999999999, 100%, 84.9%, 0.18)" stroke-width="1.5"></path><path d="M1269.85 344.19L1269.85 344.19" stroke="hsla(42.69999999999999, 100%, 84.9%, 0.18)" stroke-width="1.5"></path><path d="M1269.85 344.19L1401.56 345.31" stroke="hsla(42.69999999999999, 100%, 84.9%, 0.18)" stroke-width="1.5"></path><path d="M1269.85 344.19L1270.57 498.57" stroke="hsla(42.69999999999999, 100%, 84.9%, 0.18)" stroke-width="1.5"></path><path d="M1270.57 498.57L1270.57 498.57" stroke="hsla(42.69999999999999, 100%, 84.9%, 0.18)" stroke-width="1.5"></path><path d="M1270.57 498.57L1257.8 688.85" stroke="hsla(42.69999999999999, 100%, 84.9%, 0.18)" stroke-width="1.5"></path><path d="M1270.57 498.57L1141.15 357.4" stroke="hsla(42.69999999999999, 100%, 84.9%, 0.18)" stroke-width="1.5"></path><path d="M1257.8 688.85L1257.8 688.85" stroke="hsla(42.69999999999999, 100%, 84.9%, 0.18)" stroke-width="1.5"></path><path d="M1400.19 52.95L1400.19 52.95" stroke="hsla(42.69999999999999, 100%, 84.9%, 0.18)" stroke-width="1.5"></path><path d="M1400.19 52.95L1569.39 66.97" stroke="hsla(42.69999999999999, 100%, 84.9%, 0.18)" stroke-width="1.5"></path><path d="M1400.19 52.95L1429.15 223.57" stroke="hsla(42.69999999999999, 100%, 84.9%, 0.18)" stroke-width="1.5"></path><path d="M1429.15 223.57L1429.15 223.57" stroke="hsla(42.69999999999999, 100%, 84.9%, 0.18)" stroke-width="1.5"></path><path d="M1429.15 223.57L1401.56 345.31" stroke="hsla(42.69999999999999, 100%, 84.9%, 0.18)" stroke-width="1.5"></path><path d="M1429.15 223.57L1608.19 233.26" stroke="hsla(42.69999999999999, 100%, 84.9%, 0.18)" stroke-width="1.5"></path><path d="M1429.15 223.57L1252.11 259.38" stroke="hsla(42.69999999999999, 100%, 84.9%, 0.18)" stroke-width="1.5"></path><path d="M1429.15 223.57L1269.85 344.19" stroke="hsla(42.69999999999999, 100%, 84.9%, 0.18)" stroke-width="1.5"></path><path d="M1429.15 223.57L1569.39 66.97" stroke="hsla(42.69999999999999, 100%, 84.9%, 0.18)" stroke-width="1.5"></path><path d="M1401.56 345.31L1401.56 345.31" stroke="hsla(42.69999999999999, 100%, 84.9%, 0.18)" stroke-width="1.5"></path><path d="M1569.39 66.97L1569.39 66.97" stroke="hsla(42.69999999999999, 100%, 84.9%, 0.18)" stroke-width="1.5"></path><path d="M1569.39 66.97L1608.19 233.26" stroke="hsla(42.69999999999999, 100%, 84.9%, 0.18)" stroke-width="1.5"></path><path d="M1569.39 66.97L1589.34 364.14" stroke="hsla(42.69999999999999, 100%, 84.9%, 0.18)" stroke-width="1.5"></path><path d="M1569.39 66.97L1274.71 -41.9" stroke="hsla(42.69999999999999, 100%, 84.9%, 0.18)" stroke-width="1.5"></path><path d="M1608.19 233.26L1608.19 233.26" stroke="hsla(42.69999999999999, 100%, 84.9%, 0.18)" stroke-width="1.5"></path><path d="M1608.19 233.26L1589.34 364.14" stroke="hsla(42.69999999999999, 100%, 84.9%, 0.18)" stroke-width="1.5"></path><path d="M1589.34 364.14L1589.34 364.14" stroke="hsla(42.69999999999999, 100%, 84.9%, 0.18)" stroke-width="1.5"></path><path d="M1589.34 364.14L1401.56 345.31" stroke="hsla(42.69999999999999, 100%, 84.9%, 0.18)" stroke-width="1.5"></path><path d="M1589.34 364.14L1429.15 223.57" stroke="hsla(42.69999999999999, 100%, 84.9%, 0.18)" stroke-width="1.5"></path><path d="M1589.34 364.14L1409.61 522.84" stroke="hsla(42.69999999999999, 100%, 84.9%, 0.18)" stroke-width="1.5"></path><path d="M1600.73 674.84L1600.73 674.84" stroke="hsla(42.69999999999999, 100%, 84.9%, 0.18)" stroke-width="1.5"></path><path d="M1600.73 674.84L1409.61 522.84" stroke="hsla(42.69999999999999, 100%, 84.9%, 0.18)" stroke-width="1.5"></path><path d="M1600.73 674.84L1589.34 364.14" stroke="hsla(42.69999999999999, 100%, 84.9%, 0.18)" stroke-width="1.5"></path><circle r="25" cx="1115.35" cy="560.26" fill="url(#SvgjsRadialGradient1013)"></circle><circle r="25" cx="1452.99" cy="-111.96" fill="url(#SvgjsRadialGradient1013)"></circle><circle r="25" cx="1409.61" cy="522.84" fill="url(#SvgjsRadialGradient1013)"></circle><circle r="25" cx="1407.31" cy="703.71" fill="url(#SvgjsRadialGradient1013)"></circle><circle r="5" cx="-54.55" cy="554.69" fill="rgba(255, 250, 239, 0.59)"></circle><circle r="5" cx="-107.38" cy="694.06" fill="rgba(255, 250, 239, 0.59)"></circle><circle r="5" cx="68.92" cy="557.57" fill="rgba(255, 250, 239, 0.59)"></circle><circle r="5" cx="87.7" cy="707.01" fill="rgba(255, 250, 239, 0.59)"></circle><circle r="5" cx="223.22" cy="510.89" fill="rgba(255, 250, 239, 0.59)"></circle><circle r="5" cx="260.99" cy="681.42" fill="rgba(255, 250, 239, 0.59)"></circle><circle r="5" cx="391.43" cy="517.89" fill="rgba(255, 250, 239, 0.59)"></circle><circle r="5" cx="373.8" cy="707.57" fill="rgba(255, 250, 239, 0.59)"></circle><circle r="5" cx="525.61" cy="514.88" fill="rgba(255, 250, 239, 0.59)"></circle><circle r="5" cx="548.94" cy="687.16" fill="rgba(255, 250, 239, 0.59)"></circle><circle r="5" cx="639.24" cy="555.81" fill="rgba(255, 250, 239, 0.59)"></circle><circle r="5" cx="651.71" cy="667.82" fill="rgba(255, 250, 239, 0.59)"></circle><circle r="5" cx="798.27" cy="405.62" fill="rgba(255, 250, 239, 0.59)"></circle><circle r="5" cx="840.09" cy="532.18" fill="rgba(255, 250, 239, 0.59)"></circle><circle r="5" cx="824.6" cy="682.13" fill="rgba(255, 250, 239, 0.59)"></circle><circle r="5" cx="1002.1" cy="401.37" fill="rgba(255, 250, 239, 0.59)"></circle><circle r="5" cx="944.89" cy="547.82" fill="rgba(255, 250, 239, 0.59)"></circle><circle r="5" cx="979.45" cy="659.3" fill="rgba(255, 250, 239, 0.59)"></circle><circle r="5" cx="1147.03" cy="77.58" fill="rgba(255, 250, 239, 0.59)"></circle><circle r="5" cx="1100.02" cy="202.98" fill="rgba(255, 250, 239, 0.59)"></circle><circle r="5" cx="1141.15" cy="357.4" fill="rgba(255, 250, 239, 0.59)"></circle><circle r="5" cx="1135.91" cy="651.3" fill="rgba(255, 250, 239, 0.59)"></circle><circle r="5" cx="1274.71" cy="-41.9" fill="rgba(255, 250, 239, 0.59)"></circle><circle r="5" cx="1251.15" cy="81.63" fill="rgba(255, 250, 239, 0.59)"></circle><circle r="5" cx="1252.11" cy="259.38" fill="rgba(255, 250, 239, 0.59)"></circle><circle r="5" cx="1269.85" cy="344.19" fill="rgba(255, 250, 239, 0.59)"></circle><circle r="5" cx="1270.57" cy="498.57" fill="rgba(255, 250, 239, 0.59)"></circle><circle r="5" cx="1257.8" cy="688.85" fill="rgba(255, 250, 239, 0.59)"></circle><circle r="5" cx="1400.19" cy="52.95" fill="rgba(255, 250, 239, 0.59)"></circle><circle r="5" cx="1429.15" cy="223.57" fill="rgba(255, 250, 239, 0.59)"></circle><circle r="5" cx="1401.56" cy="345.31" fill="rgba(255, 250, 239, 0.59)"></circle><circle r="5" cx="1569.39" cy="66.97" fill="rgba(255, 250, 239, 0.59)"></circle><circle r="5" cx="1608.19" cy="233.26" fill="rgba(255, 250, 239, 0.59)"></circle><circle r="5" cx="1589.34" cy="364.14" fill="rgba(255, 250, 239, 0.59)"></circle><circle r="5" cx="1600.73" cy="674.84" fill="rgba(255, 250, 239, 0.59)"></circle></g><defs><mask id="SvgjsMask1012"><rect width="1440" height="560" fill="#ffffff"></rect></mask><radialGradient id="SvgjsRadialGradient1013"><stop stop-color="#ffffff" offset="0.1"></stop><stop stop-color="rgba(255, 204, 78, 0.18)" offset="0.2"></stop><stop stop-color="rgba(255, 204, 78, 0)" offset="1"></stop></radialGradient></defs></svg>